<?xml version="1.0" standalone="no"?>
<!DOCTYPE svg PUBLIC "-//W3C//DTD SVG 1.1//EN" "http://www.w3.org/Graphics/SVG/1.1/DTD/svg11.dtd" >
<svg xmlns="http://www.w3.org/2000/svg" xmlns:xlink="http://www.w3.org/1999/xlink" version="1.1">
<metadata>
Created by FontForge 20170910 at Mon Feb 13 00:14:53 2017
 By Jimmy Wärting
copyright missing
</metadata>
<defs>
<font id="Calamity-Regular" horiz-adv-x="690" >
  <font-face 
    font-family="Calamity"
    font-weight="400"
    font-stretch="normal"
    units-per-em="1000"
    panose-1="0 0 5 0 0 0 0 0 0 0"
    ascent="880"
    descent="-120"
    x-height="551"
    cap-height="780"
    bbox="-372 -203 974 1005"
    underline-thickness="50"
    underline-position="-100"
    unicode-range="U+0020-FB02"
  />
<missing-glyph horiz-adv-x="500" 
d="M410 880v-1000h-317v1000h317zM333 813h-165v-33h65v-37h-66v-33h166v33h-66v37h66v33zM267 684h-100v-104h166v34h-66v70zM233 650v-36h-33v36h33zM333 553h-166v-33h66v-37h-66v-33h100v70h66v33zM333 493h-33v-66h-133v-34h166v100zM333 371h-100v-56h34v23h33v-47
h-100v80h-33v-113h166v113zM333 198h-166v-113h166v113zM300 165v-47h-100v47h100zM333 62h-166v-33h70l-70 -47v-33h166v33h-102l70 47h32v33z" />
    <glyph glyph-name="f_f" unicode="ff" horiz-adv-x="510" 
d="M528 738c-111 -3 -122 -33 -129 -102l-9 -85h102l-5 -59h-100l-49 -492h-70l49 492h-153l-49 -492h-70l49 492h-77l5 59h77l9 87c10 99 46 152 188 158l9 -58c-111 -3 -122 -33 -129 -102l-9 -85h155l9 87c10 99 46 152 188 158z" />
    <glyph glyph-name="f_f_i" unicode="ffi" horiz-adv-x="687" 
d="M528 738c-111 -3 -122 -33 -129 -102l-9 -85h102l-5 -59h-100l-49 -492h-70l49 492h-153l-49 -492h-70l49 492h-77l5 59h77l9 87c10 99 46 152 188 158l9 -58c-111 -3 -122 -33 -129 -102l-9 -85h155l9 87c10 99 46 152 188 158zM625 663h-76l12 117h76zM558 0h-72
l54 551h72z" />
    <glyph glyph-name="f_f_l" unicode="ffl" horiz-adv-x="687" 
d="M528 738c-111 -3 -122 -33 -129 -102l-9 -85h102l-5 -59h-100l-49 -492h-70l49 492h-153l-49 -492h-70l49 492h-77l5 59h77l9 87c10 99 46 152 188 158l9 -58c-111 -3 -122 -33 -129 -102l-9 -85h155l9 87c10 99 46 152 188 158zM558 0h-73l77 780h73z" />
    <glyph glyph-name="fi" unicode="fi" horiz-adv-x="481" 
d="M305 738c-111 -3 -122 -33 -129 -102l-9 -85h102l-5 -59h-100l-49 -492h-70l49 492h-77l5 59h77l9 87c10 99 46 152 188 158zM419 663h-76l12 117h76zM352 0h-72l54 551h72z" />
    <glyph glyph-name="fl" unicode="fl" horiz-adv-x="481" 
d="M305 738c-111 -3 -122 -33 -129 -102l-9 -85h102l-5 -59h-100l-49 -492h-70l49 492h-77l5 59h77l9 87c10 99 46 152 188 158zM352 0h-73l77 780h73z" />
    <glyph glyph-name=".notdef" horiz-adv-x="500" 
d="M410 880v-1000h-317v1000h317zM333 813h-165v-33h65v-37h-66v-33h166v33h-66v37h66v33zM267 684h-100v-104h166v34h-66v70zM233 650v-36h-33v36h33zM333 553h-166v-33h66v-37h-66v-33h100v70h66v33zM333 493h-33v-66h-133v-34h166v100zM333 371h-100v-56h34v23h33v-47
h-100v80h-33v-113h166v113zM333 198h-166v-113h166v113zM300 165v-47h-100v47h100zM333 62h-166v-33h70l-70 -47v-33h166v33h-102l70 47h32v33z" />
    <glyph glyph-name="A" unicode="A" horiz-adv-x="669" 
d="M542 0l-67 246h-335l-116 -246h-79l368 780h93l213 -780h-77zM460 310c-4 17 -99 367 -107 400c-14 -34 -178 -384 -184 -400h291z" />
    <glyph glyph-name="Aacute" unicode="&#xc1;" horiz-adv-x="669" 
d="M268 822l-16 44l184 106l47 -55zM542 0l-67 246h-335l-116 -246h-79l368 780h93l213 -780h-77zM460 310c-4 17 -99 367 -107 400c-14 -34 -178 -384 -184 -400h291z" />
    <glyph glyph-name="uni01CD" unicode="&#x1cd;" horiz-adv-x="669" 
d="M391 828h-56l-123 109l28 39l128 -80l144 80l22 -39zM542 0l-67 246h-335l-116 -246h-79l368 780h93l213 -780h-77zM460 310c-4 17 -99 367 -107 400c-14 -34 -178 -384 -184 -400h291z" />
    <glyph glyph-name="Acircumflex" unicode="&#xc2;" horiz-adv-x="669" 
d="M501 820l-129 80l-143 -80l-23 39l144 109h56l122 -109zM542 0l-67 246h-335l-116 -246h-79l368 780h93l213 -780h-77zM460 310c-4 17 -99 367 -107 400c-14 -34 -178 -384 -184 -400h291z" />
    <glyph glyph-name="Adieresis" unicode="&#xc4;" horiz-adv-x="669" 
d="M297 840h-71l10 102h71zM505 840h-71l10 102h71zM542 0l-67 246h-335l-116 -246h-79l368 780h93l213 -780h-77zM460 310c-4 17 -99 367 -107 400c-14 -34 -178 -384 -184 -400h291z" />
    <glyph glyph-name="Agrave" unicode="&#xc0;" horiz-adv-x="669" 
d="M456 822l-195 95l57 55l162 -106zM542 0l-67 246h-335l-116 -246h-79l368 780h93l213 -780h-77zM460 310c-4 17 -99 367 -107 400c-14 -34 -178 -384 -184 -400h291z" />
    <glyph glyph-name="Amacron" unicode="&#x100;" horiz-adv-x="669" 
d="M518 878h-300l6 54h300zM542 0l-67 246h-335l-116 -246h-79l368 780h93l213 -780h-77zM460 310c-4 17 -99 367 -107 400c-14 -34 -178 -384 -184 -400h291z" />
    <glyph glyph-name="Aring" unicode="&#xc5;" horiz-adv-x="669" 
d="M473 924c1 -7 1 -14 0 -21c-6 -56 -56 -102 -112 -102c-49 0 -86 35 -91 81c-1 7 -2 14 -1 21c6 56 56 102 112 102c49 0 86 -35 92 -81zM431 914c-3 27 -26 48 -55 48c-33 0 -62 -27 -65 -60c0 -4 0 -8 1 -12c3 -27 24 -47 53 -47c33 0 63 26 66 59c1 4 0 8 0 12zM542 0
l-67 246h-335l-116 -246h-79l368 780h93l213 -780h-77zM460 310c-4 17 -99 367 -107 400c-14 -34 -178 -384 -184 -400h291z" />
    <glyph glyph-name="Atilde" unicode="&#xc3;" horiz-adv-x="669" 
d="M543 876c-25 -25 -57 -49 -100 -49c-27 0 -51 15 -78 31c-17 11 -46 31 -68 31c-30 0 -57 -15 -102 -60l8 77c29 28 62 49 100 49c28 0 53 -17 77 -31c25 -15 49 -31 69 -31c31 0 58 15 102 60zM542 0l-67 246h-335l-116 -246h-79l368 780h93l213 -780h-77zM460 310
c-4 17 -99 367 -107 400c-14 -34 -178 -384 -184 -400h291z" />
    <glyph glyph-name="AE" unicode="&#xc6;" horiz-adv-x="899" 
d="M857 715h-333l-28 -279h285l-6 -63h-285l-31 -307h351l-6 -66h-422l24 246h-251l-155 -246h-78l492 780h449zM196 310h217l39 406z" />
    <glyph glyph-name="B" unicode="B" horiz-adv-x="687" 
d="M602 626c1 -12 2 -25 0 -38c-10 -98 -66 -155 -146 -173c75 -10 147 -63 157 -155c2 -14 2 -29 1 -45c-14 -141 -134 -215 -287 -215h-285l77 780h265c121 0 207 -60 218 -154zM528 607c-10 85 -96 112 -167 112h-175l-27 -277h198c87 0 161 37 171 132c1 12 1 23 0 33z
M542 255c-10 89 -103 125 -186 125h-203l-31 -316h204c114 0 206 54 216 160c1 11 1 21 0 31z" />
    <glyph glyph-name="C" unicode="C" horiz-adv-x="709" 
d="M616 600c-31 80 -104 131 -204 131c-149 0 -279 -135 -299 -336c-4 -41 -4 -78 0 -111c18 -160 120 -233 235 -233c97 0 189 51 237 133l43 -50c-54 -88 -155 -150 -289 -150c-169 0 -282 103 -302 283c-5 39 -5 82 0 128c23 236 175 401 378 401c136 0 220 -63 255 -147
z" />
    <glyph glyph-name="Ccedilla" unicode="&#xc7;" horiz-adv-x="709" 
d="M616 600c-31 80 -104 131 -204 131c-149 0 -279 -135 -299 -336c-4 -41 -4 -78 0 -111c18 -160 120 -233 235 -233c97 0 189 51 237 133l43 -50c-54 -88 -149 -150 -293 -150h-3l-8 -15c12 2 24 3 35 3c49 0 79 -20 84 -56c0 -5 0 -10 -1 -16c-5 -51 -45 -82 -115 -82
c-44 0 -72 10 -93 25l21 33c10 -7 37 -18 58 -18c35 0 65 13 67 38c1 3 0 6 0 8c-2 18 -16 31 -42 31c-10 0 -21 -2 -36 -7l-38 20l18 40c-136 21 -227 119 -245 279c-5 39 -5 82 0 128c23 236 175 401 378 401c136 0 220 -63 255 -147z" />
    <glyph glyph-name="D" unicode="D" horiz-adv-x="756" 
d="M685 498c4 -33 4 -69 0 -107c-21 -210 -164 -391 -400 -391h-243l77 780h235c197 0 312 -112 331 -282zM611 481c-16 139 -109 235 -279 235h-146l-63 -652h155c203 0 317 159 333 328c4 31 3 61 0 89z" />
    <glyph glyph-name="Eth" unicode="&#xd0;" horiz-adv-x="758" 
d="M685 498c4 -33 4 -69 0 -107c-21 -210 -164 -391 -400 -391h-243l35 353h-62l5 52h62l37 375h235c197 0 312 -112 331 -282zM611 481c-16 139 -109 235 -279 235h-146l-30 -311h253l-5 -52h-253l-28 -289h155c203 0 317 159 333 328c4 31 3 61 0 89z" />
    <glyph glyph-name="E" unicode="E" horiz-adv-x="652" 
d="M610 715h-423l-28 -279h375l-6 -63h-375l-31 -307h441l-6 -66h-515l77 780h497z" />
    <glyph glyph-name="E_ring" horiz-adv-x="652" 
d="M485 924c1 -7 1 -14 0 -21c-6 -56 -56 -102 -112 -102c-49 0 -86 35 -91 81c-1 7 -2 14 -1 21c6 56 56 102 112 102c49 0 86 -35 92 -81zM443 914c-3 27 -26 48 -55 48c-33 0 -62 -27 -65 -60c0 -4 0 -8 1 -12c3 -27 24 -47 53 -47c33 0 63 26 66 59c1 4 0 8 0 12z
M610 715h-423l-28 -279h375l-6 -63h-375l-31 -307h441l-6 -66h-515l77 780h497z" />
    <glyph glyph-name="Eacute" unicode="&#xc9;" horiz-adv-x="652" 
d="M289 822l-16 44l184 106l47 -55zM610 715h-423l-28 -279h375l-6 -63h-375l-31 -307h441l-6 -66h-515l77 780h497z" />
    <glyph glyph-name="Ecaron" unicode="&#x11a;" horiz-adv-x="652" 
d="M406 828h-56l-123 109l28 39l128 -80l144 80l22 -39zM610 715h-423l-28 -279h375l-6 -63h-375l-31 -307h441l-6 -66h-515l77 780h497z" />
    <glyph glyph-name="Ecircumflex" unicode="&#xca;" horiz-adv-x="652" 
d="M514 820l-129 80l-143 -80l-23 39l144 109h56l122 -109zM610 715h-423l-28 -279h375l-6 -63h-375l-31 -307h441l-6 -66h-515l77 780h497z" />
    <glyph glyph-name="Edieresis" unicode="&#xcb;" horiz-adv-x="652" 
d="M306 841h-71l10 102h71zM514 841h-71l10 102h71zM610 715h-423l-28 -279h375l-6 -63h-375l-31 -307h441l-6 -66h-515l77 780h497z" />
    <glyph glyph-name="Egrave" unicode="&#xc8;" horiz-adv-x="652" 
d="M452 822l-195 95l57 55l162 -106zM610 715h-423l-28 -279h375l-6 -63h-375l-31 -307h441l-6 -66h-515l77 780h497z" />
    <glyph glyph-name="Emacron" unicode="&#x112;" horiz-adv-x="652" 
d="M527 878h-300l6 54h300zM610 715h-423l-28 -279h375l-6 -63h-375l-31 -307h441l-6 -66h-515l77 780h497z" />
    <glyph glyph-name="uni1EBC" unicode="&#x1ebc;" horiz-adv-x="652" 
d="M553 876c-25 -25 -57 -49 -100 -49c-27 0 -51 15 -77 31c-18 11 -47 31 -69 31c-30 0 -57 -15 -102 -60l8 77c29 28 62 49 100 49c28 0 54 -17 78 -31c24 -15 48 -31 68 -31c31 0 58 15 102 60zM610 715h-423l-28 -279h375l-6 -63h-375l-31 -307h441l-6 -66h-515l77 780
h497z" />
    <glyph glyph-name="F" unicode="F" horiz-adv-x="614" 
d="M594 714h-407l-28 -283h361l-7 -64h-361l-36 -367h-74l77 780h481z" />
    <glyph glyph-name="G" unicode="G" horiz-adv-x="768" 
d="M638 593c-31 78 -102 138 -215 138c-154 0 -289 -123 -310 -336c-4 -40 -4 -76 -1 -109c19 -163 125 -237 246 -237c106 0 194 42 237 117l18 181h-230l7 65h298l-26 -268c-67 -110 -169 -160 -309 -160c-162 0 -290 98 -312 288c-4 38 -5 79 0 123
c26 257 184 401 384 401c153 0 233 -74 269 -155z" />
    <glyph glyph-name="H" unicode="H" horiz-adv-x="748" 
d="M593 0h-75l37 373h-409l-37 -373h-74l77 780h74l-34 -343h409l34 343h75z" />
    <glyph glyph-name="I" unicode="I" horiz-adv-x="268" 
d="M121 0h-76l77 780h76z" />
    <glyph glyph-name="I_ring" horiz-adv-x="268" 
d="M278 923c1 -7 0 -13 0 -20c-6 -56 -56 -102 -112 -102c-49 0 -86 35 -91 81c-1 7 -2 14 -1 21c5 56 55 102 111 102c49 0 88 -36 93 -82zM235 915c-3 27 -25 47 -54 47c-33 0 -63 -27 -66 -60c0 -4 0 -8 1 -12c3 -27 25 -47 54 -47c33 0 62 26 65 59c1 4 0 8 0 13zM121 0
h-76l77 780h76z" />
    <glyph glyph-name="Iacute" unicode="&#xcd;" horiz-adv-x="268" 
d="M71 822l-16 44l184 106l47 -55zM121 0h-76l77 780h76z" />
    <glyph glyph-name="uni01CF" unicode="&#x1cf;" horiz-adv-x="268" 
d="M196 828h-56l-123 109l28 39l128 -80l144 80l22 -39zM121 0h-76l77 780h76z" />
    <glyph glyph-name="Icircumflex" unicode="&#xce;" horiz-adv-x="268" 
d="M304 820l-129 80l-143 -80l-23 39l144 109h56l122 -109zM121 0h-76l77 780h76z" />
    <glyph glyph-name="Idieresis" unicode="&#xcf;" horiz-adv-x="268" 
d="M97 841h-71l10 102h71zM305 841h-71l10 102h71zM121 0h-76l77 780h76z" />
    <glyph glyph-name="Igrave" unicode="&#xcc;" horiz-adv-x="268" 
d="M253 822l-195 95l57 55l162 -106zM121 0h-76l77 780h76z" />
    <glyph glyph-name="Imacron" unicode="&#x12a;" horiz-adv-x="268" 
d="M318 878h-300l6 54h300zM121 0h-76l77 780h76z" />
    <glyph glyph-name="Itilde" unicode="&#x128;" horiz-adv-x="268" 
d="M342 876c-25 -25 -57 -49 -100 -49c-27 0 -51 15 -77 31c-18 11 -47 31 -69 31c-30 0 -57 -15 -102 -60l8 77c29 28 62 49 100 49c28 0 54 -17 78 -31c24 -15 48 -31 68 -31c31 0 58 15 102 60zM121 0h-76l77 780h76z" />
    <glyph glyph-name="J" unicode="J" horiz-adv-x="411" 
d="M279 158c-11 -113 -85 -174 -200 -174c-43 0 -81 8 -123 21l4 74c41 -18 81 -26 117 -26c68 0 120 35 128 115l60 612h75z" />
    <glyph glyph-name="K" unicode="K" horiz-adv-x="648" 
d="M290 455l308 -455h-88l-275 408l-110 -97l-31 -311h-73l77 780h73l-37 -376l422 376h91z" />
    <glyph glyph-name="L" unicode="L" horiz-adv-x="590" 
d="M511 0h-469l77 780h74l-70 -711h395z" />
    <glyph glyph-name="Lslash" unicode="&#x141;" horiz-adv-x="590" 
d="M511 0h-469l28 289l-91 -70l6 70l92 70l42 421h74l-36 -360l159 122l-7 -71l-159 -121l-27 -281h395z" />
    <glyph glyph-name="M" unicode="M" horiz-adv-x="897" 
d="M752 0h-70l51 517c4 36 20 151 25 186h-3c-5 -20 -16 -51 -23 -67l-297 -636h-70l-172 632c-4 19 -9 48 -13 71h-3c0 -34 -8 -145 -13 -188l-50 -515h-68l77 780h102l164 -596c9 -34 15 -60 17 -83c1 -4 1 -7 2 -10h2c7 24 20 55 37 92l281 597h101z" />
    <glyph glyph-name="N" unicode="N" horiz-adv-x="746" 
d="M600 0h-95l-300 619c-9 18 -20 63 -23 85h-3c-2 -29 -2 -72 -5 -113l-59 -591h-71l77 780h94l300 -617c11 -26 25 -66 28 -84h3c-2 22 -1 74 1 104l59 597h71z" />
    <glyph glyph-name="Ntilde" unicode="&#xd1;" horiz-adv-x="746" 
d="M580 876c-25 -25 -57 -49 -100 -49c-27 0 -51 15 -78 31c-17 11 -46 31 -68 31c-30 0 -57 -15 -102 -60l8 77c29 28 62 49 100 49c28 0 53 -17 77 -31c25 -15 49 -31 69 -31c31 0 58 15 102 60zM600 0h-95l-300 619c-9 18 -20 63 -23 85h-3c-2 -29 -2 -72 -5 -113
l-59 -591h-71l77 780h94l300 -617c11 -26 25 -66 28 -84h3c-2 22 -1 74 1 104l59 597h71z" />
    <glyph glyph-name="O" unicode="O" horiz-adv-x="783" 
d="M703 508c4 -38 5 -77 0 -117c-21 -216 -154 -407 -371 -407c-176 0 -273 126 -291 289c-4 38 -5 78 -1 118c22 214 155 405 371 405c176 0 274 -126 292 -288zM629 496c-15 138 -95 234 -224 234c-156 0 -273 -146 -292 -339c-3 -36 -3 -71 0 -103
c16 -140 98 -238 225 -238c158 0 272 149 291 341c4 37 4 72 0 105z" />
    <glyph glyph-name="O_ring" horiz-adv-x="783" 
d="M524 924c1 -7 1 -14 0 -21c-6 -56 -56 -102 -112 -102c-49 0 -86 35 -91 81c-1 7 -2 14 -1 21c6 56 55 102 111 102c49 0 87 -35 93 -81zM481 915c-3 27 -25 47 -54 47c-33 0 -63 -27 -66 -60c0 -4 0 -8 1 -12c3 -27 25 -47 54 -47c33 0 62 26 65 59c1 4 0 8 0 13z
M703 507c4 -37 4 -76 0 -116c-21 -216 -155 -407 -372 -407c-175 0 -272 126 -290 289c-4 37 -5 77 -1 118c21 214 155 405 371 405c177 0 274 -127 292 -289zM629 496c-15 138 -95 234 -224 234c-156 0 -273 -146 -292 -339c-3 -36 -3 -71 0 -104c16 -139 97 -237 224 -237
c158 0 273 149 292 341c4 37 4 72 0 105z" />
    <glyph glyph-name="Oacute" unicode="&#xd3;" horiz-adv-x="783" 
d="M301 822l-16 44l184 106l47 -55zM703 508c4 -38 5 -77 0 -117c-21 -216 -154 -407 -371 -407c-176 0 -273 126 -291 289c-4 38 -5 78 -1 118c22 214 155 405 371 405c176 0 274 -126 292 -288zM629 496c-15 138 -95 234 -224 234c-156 0 -273 -146 -292 -339
c-3 -36 -3 -71 0 -103c16 -140 98 -238 225 -238c158 0 272 149 291 341c4 37 4 72 0 105z" />
    <glyph glyph-name="uni01D1" unicode="&#x1d1;" horiz-adv-x="783" 
d="M443 828h-56l-123 109l28 39l128 -80l144 80l22 -39zM703 508c4 -38 5 -77 0 -117c-21 -216 -154 -407 -371 -407c-176 0 -273 126 -291 289c-4 38 -5 78 -1 118c22 214 155 405 371 405c176 0 274 -126 292 -288zM629 496c-15 138 -95 234 -224 234
c-156 0 -273 -146 -292 -339c-3 -36 -3 -71 0 -103c16 -140 98 -238 225 -238c158 0 272 149 291 341c4 37 4 72 0 105z" />
    <glyph glyph-name="Ocircumflex" unicode="&#xd4;" horiz-adv-x="783" 
d="M551 820l-129 80l-143 -80l-23 39l144 109h56l122 -109zM703 508c4 -38 5 -77 0 -117c-21 -216 -154 -407 -371 -407c-176 0 -273 126 -291 289c-4 38 -5 78 -1 118c22 214 155 405 371 405c176 0 274 -126 292 -288zM629 496c-15 138 -95 234 -224 234
c-156 0 -273 -146 -292 -339c-3 -36 -3 -71 0 -103c16 -140 98 -238 225 -238c158 0 272 149 291 341c4 37 4 72 0 105z" />
    <glyph glyph-name="Odieresis" unicode="&#xd6;" horiz-adv-x="783" 
d="M347 841h-71l10 102h71zM555 841h-71l10 102h71zM703 508c4 -38 5 -77 0 -117c-21 -216 -154 -407 -371 -407c-176 0 -273 126 -291 289c-4 38 -5 78 -1 118c22 214 155 405 371 405c176 0 274 -126 292 -288zM629 496c-15 138 -95 234 -224 234
c-156 0 -273 -146 -292 -339c-3 -36 -3 -71 0 -103c16 -140 98 -238 225 -238c158 0 272 149 291 341c4 37 4 72 0 105z" />
    <glyph glyph-name="Ograve" unicode="&#xd2;" horiz-adv-x="783" 
d="M508 822l-195 95l57 55l162 -106zM703 508c4 -38 5 -77 0 -117c-21 -216 -154 -407 -371 -407c-176 0 -273 126 -291 289c-4 38 -5 78 -1 118c22 214 155 405 371 405c176 0 274 -126 292 -288zM629 496c-15 138 -95 234 -224 234c-156 0 -273 -146 -292 -339
c-3 -36 -3 -71 0 -103c16 -140 98 -238 225 -238c158 0 272 149 291 341c4 37 4 72 0 105z" />
    <glyph glyph-name="Omacron" unicode="&#x14c;" horiz-adv-x="783" 
d="M568 878h-300l6 54h300zM703 508c4 -38 5 -77 0 -117c-21 -216 -154 -407 -371 -407c-176 0 -273 126 -291 289c-4 38 -5 78 -1 118c22 214 155 405 371 405c176 0 274 -126 292 -288zM629 496c-15 138 -95 234 -224 234c-156 0 -273 -146 -292 -339
c-3 -36 -3 -71 0 -103c16 -140 98 -238 225 -238c158 0 272 149 291 341c4 37 4 72 0 105z" />
    <glyph glyph-name="Oslash" unicode="&#xd8;" horiz-adv-x="783" 
d="M756 743c0 0 -51 -54 -91 -99c19 -40 32 -86 38 -135c4 -38 5 -78 0 -118c-21 -216 -154 -407 -371 -407c-87 0 -155 31 -204 82l-85 -92l-36 36l90 96c-48 76 -67 177 -57 285c22 214 155 405 371 405c102 0 177 -42 227 -109l82 90zM585 631c-39 62 -100 99 -180 99
c-156 0 -273 -146 -292 -339c-3 -36 -3 -71 0 -103c6 -47 18 -89 37 -124zM630 494c-4 32 -11 62 -21 89l-429 -462c38 -44 92 -71 158 -71c158 0 272 149 291 341c4 37 4 71 1 103z" />
    <glyph glyph-name="Otilde" unicode="&#xd5;" horiz-adv-x="783" 
d="M596 876c-25 -25 -57 -49 -100 -49c-27 0 -51 15 -78 31c-17 11 -46 31 -68 31c-30 0 -57 -15 -102 -60l8 77c29 28 62 49 100 49c28 0 53 -17 77 -31c25 -15 49 -31 69 -31c31 0 58 15 102 60zM703 508c4 -38 5 -77 0 -117c-21 -216 -154 -407 -371 -407
c-176 0 -273 126 -291 289c-4 38 -5 78 -1 118c22 214 155 405 371 405c176 0 274 -126 292 -288zM629 496c-15 138 -95 234 -224 234c-156 0 -273 -146 -292 -339c-3 -36 -3 -71 0 -103c16 -140 98 -238 225 -238c158 0 272 149 291 341c4 37 4 72 0 105z" />
    <glyph glyph-name="OE" unicode="&#x152;" horiz-adv-x="901" 
d="M857 715h-333l-28 -279h285l-6 -63h-285l-31 -307h351l-6 -66h-422l3 30c-32 -25 -66 -46 -137 -46c-115 0 -193 77 -211 237c-6 50 -5 108 1 174c23 234 132 401 287 401c50 0 103 -14 131 -45l3 29h404zM444 646c-4 39 -54 84 -122 84c-99 0 -189 -127 -209 -335
c-6 -63 -7 -117 -1 -164c13 -117 62 -180 145 -180c63 0 134 45 141 102l47 482c0 3 0 7 -1 11z" />
    <glyph glyph-name="P" unicode="P" horiz-adv-x="675" 
d="M629 592c2 -19 1 -39 -1 -60c-14 -141 -113 -247 -262 -247h-221l-29 -285h-74l77 780h295c117 0 202 -75 215 -188zM554 578c-10 87 -76 139 -167 139h-202l-36 -368h204c99 0 190 66 201 183c2 16 2 31 0 46z" />
    <glyph glyph-name="Thorn" unicode="&#xde;" horiz-adv-x="675" 
d="M615 461c3 -19 3 -38 0 -59c-13 -138 -109 -237 -262 -237h-221l-16 -165h-74l77 780h74l-14 -140h221c115 0 203 -67 215 -179zM541 448c-10 84 -75 129 -167 129h-202l-34 -348h204c97 0 188 53 199 173c2 17 2 32 0 46z" />
    <glyph glyph-name="Q" unicode="Q" horiz-adv-x="775" 
d="M704 508c4 -37 5 -76 0 -116c-14 -154 -89 -296 -208 -363c38 -41 96 -83 155 -115l-78 -40c-45 27 -104 79 -146 127c-27 -9 -61 -15 -95 -15c-176 0 -273 126 -291 289c-5 37 -5 77 -1 117c22 214 155 404 371 404c177 0 275 -126 293 -288zM632 495
c-16 140 -98 236 -227 236c-156 0 -274 -146 -293 -339c-4 -36 -3 -71 1 -103c16 -140 97 -238 225 -238c158 0 274 148 293 341c4 36 4 71 1 103z" />
    <glyph glyph-name="R" unicode="R" horiz-adv-x="696" 
d="M620 620c2 -16 2 -33 0 -52c-13 -135 -94 -199 -176 -218l171 -350h-86l-160 340h-227l-33 -340h-72l77 780h282c123 0 212 -53 224 -160zM547 600c-9 78 -81 117 -169 117h-199l-31 -317h201c107 0 186 55 197 167c1 12 2 23 1 33z" />
    <glyph glyph-name="S" unicode="S" horiz-adv-x="655" 
d="M518 597c-24 95 -82 135 -177 135c-100 0 -177 -63 -184 -136c-1 -10 -1 -20 0 -29c6 -46 40 -78 119 -105l108 -36c108 -39 169 -88 179 -172c2 -16 2 -33 0 -51c-13 -134 -116 -219 -284 -219c-145 0 -236 83 -261 200l61 37c23 -96 100 -171 206 -171
c114 0 195 62 203 148c2 12 2 24 0 35c-6 60 -54 97 -139 128l-109 38c-101 37 -147 78 -155 147c-2 14 -2 30 0 48c12 110 115 202 259 202c112 0 185 -35 222 -114c6 -13 11 -27 15 -42z" />
    <glyph glyph-name="Scaron" unicode="&#x160;" horiz-adv-x="655" 
d="M392 828h-56l-123 109l28 39l128 -80l144 80l22 -39zM518 597c-24 95 -82 135 -177 135c-100 0 -177 -63 -184 -136c-1 -10 -1 -20 0 -29c6 -46 40 -78 119 -105l108 -36c108 -39 169 -88 179 -172c2 -16 2 -33 0 -51c-13 -134 -116 -219 -284 -219
c-145 0 -236 83 -261 200l61 37c23 -96 100 -171 206 -171c114 0 195 62 203 148c2 12 2 24 0 35c-6 60 -54 97 -139 128l-109 38c-101 37 -147 78 -155 147c-2 14 -2 30 0 48c12 110 115 202 259 202c112 0 185 -35 222 -114c6 -13 11 -27 15 -42z" />
    <glyph glyph-name="T" unicode="T" horiz-adv-x="601" 
d="M601 714h-245l-71 -714h-76l71 714h-245l6 66h566z" />
    <glyph glyph-name="U" unicode="U" horiz-adv-x="750" 
d="M622 245c-17 -169 -143 -261 -304 -261c-141 0 -240 68 -254 194c-3 21 -3 43 -1 67l53 535h75l-52 -528c-2 -21 -2 -40 0 -58c10 -92 76 -145 184 -145c128 0 214 75 227 203l52 528h73z" />
    <glyph glyph-name="Uacute" unicode="&#xda;" horiz-adv-x="750" 
d="M307 822l-16 44l184 106l47 -55zM622 245c-17 -169 -143 -261 -304 -261c-141 0 -240 68 -254 194c-3 21 -3 43 -1 67l53 535h75l-52 -528c-2 -21 -2 -40 0 -58c10 -92 76 -145 184 -145c128 0 214 75 227 203l52 528h73z" />
    <glyph glyph-name="uni01D3" unicode="&#x1d3;" horiz-adv-x="750" 
d="M432 828h-56l-123 109l28 39l128 -80l144 80l22 -39zM622 245c-17 -169 -143 -261 -304 -261c-141 0 -240 68 -254 194c-3 21 -3 43 -1 67l53 535h75l-52 -528c-2 -21 -2 -40 0 -58c10 -92 76 -145 184 -145c128 0 214 75 227 203l52 528h73z" />
    <glyph glyph-name="Ucircumflex" unicode="&#xdb;" horiz-adv-x="750" 
d="M540 820l-129 80l-143 -80l-23 39l144 109h56l122 -109zM622 245c-17 -169 -143 -261 -304 -261c-141 0 -240 68 -254 194c-3 21 -3 43 -1 67l53 535h75l-52 -528c-2 -21 -2 -40 0 -58c10 -92 76 -145 184 -145c128 0 214 75 227 203l52 528h73z" />
    <glyph glyph-name="Udieresis" unicode="&#xdc;" horiz-adv-x="750" 
d="M335 841h-71l10 102h71zM543 841h-71l10 102h71zM622 245c-17 -169 -143 -261 -304 -261c-141 0 -240 68 -254 194c-3 21 -3 43 -1 67l53 535h75l-52 -528c-2 -21 -2 -40 0 -58c10 -92 76 -145 184 -145c128 0 214 75 227 203l52 528h73z" />
    <glyph glyph-name="Ugrave" unicode="&#xd9;" horiz-adv-x="750" 
d="M480 822l-195 95l57 55l162 -106zM622 245c-17 -169 -143 -261 -304 -261c-141 0 -240 68 -254 194c-3 21 -3 43 -1 67l53 535h75l-52 -528c-2 -21 -2 -40 0 -58c10 -92 76 -145 184 -145c128 0 214 75 227 203l52 528h73z" />
    <glyph glyph-name="Umacron" unicode="&#x16a;" horiz-adv-x="750" 
d="M556 878h-300l6 54h300zM622 245c-17 -169 -143 -261 -304 -261c-141 0 -240 68 -254 194c-3 21 -3 43 -1 67l53 535h75l-52 -528c-2 -21 -2 -40 0 -58c10 -92 76 -145 184 -145c128 0 214 75 227 203l52 528h73z" />
    <glyph glyph-name="Uring" unicode="&#x16e;" horiz-adv-x="750" 
d="M512 924c1 -7 1 -14 0 -21c-6 -56 -56 -102 -112 -102c-49 0 -86 35 -91 81c-1 7 -2 14 -1 21c6 56 55 102 111 102c49 0 87 -35 93 -81zM470 914c-3 27 -26 48 -55 48c-33 0 -62 -27 -65 -60c0 -4 0 -8 1 -12c3 -27 24 -47 53 -47c33 0 63 26 66 59c1 4 0 8 0 12z
M622 245c-17 -169 -144 -261 -305 -261c-141 0 -240 68 -254 194c-3 21 -2 43 0 67l53 535h75l-53 -528c-1 -20 -1 -39 1 -57c10 -93 75 -146 184 -146c128 0 214 75 226 203l53 528h73z" />
    <glyph glyph-name="Utilde" unicode="&#x168;" horiz-adv-x="750" 
d="M580 876c-26 -25 -58 -49 -101 -49c-27 0 -51 15 -77 31c-18 11 -47 31 -69 31c-30 0 -57 -15 -101 -60l7 77c29 28 62 49 100 49c28 0 54 -17 78 -31c25 -15 48 -31 68 -31c31 0 58 15 102 60zM622 245c-16 -169 -143 -261 -304 -261c-141 0 -240 68 -254 195
c-3 21 -3 43 -1 66l53 535h75l-52 -528c-1 -20 -1 -39 1 -57c10 -93 75 -146 184 -146c128 0 214 75 226 203l52 528h73z" />
    <glyph glyph-name="V" unicode="V" horiz-adv-x="650" 
d="M317 0h-89l-196 780h76l155 -616c5 -26 12 -60 14 -77h2c8 17 21 52 31 77l275 616h82z" />
    <glyph glyph-name="W" unicode="W" horiz-adv-x="915" 
d="M652 0h-90l-84 636c-2 21 -1 65 -1 83h-2c-3 -15 -11 -60 -18 -83l-210 -636h-90l-107 780h71l83 -620c2 -20 3 -67 1 -93h3c6 28 13 70 21 93l200 620h99l82 -624c0 -2 1 -3 1 -5c2 -23 2 -62 1 -83h2l18 87l204 625h75z" />
    <glyph glyph-name="X" unicode="X" horiz-adv-x="625" 
d="M340 404l224 -404h-80l-190 342l-255 -342h-84l303 407l-207 373h79l173 -312l232 312h85z" />
    <glyph glyph-name="Y" unicode="Y" horiz-adv-x="593" 
d="M309 296l-29 -296h-74l29 295l-217 485h74l184 -408l266 408h79z" />
    <glyph glyph-name="Yacute" unicode="&#xdd;" horiz-adv-x="593" 
d="M245 822l-16 44l184 106l47 -55zM309 296l-29 -296h-74l29 295l-217 485h74l184 -408l266 408h79z" />
    <glyph glyph-name="Ydieresis" unicode="&#x178;" horiz-adv-x="593" 
d="M261 841h-71l10 102h71zM469 841h-71l10 102h71zM309 296l-29 -296h-74l29 295l-217 485h74l184 -408l266 408h79z" />
    <glyph glyph-name="Z" unicode="Z" horiz-adv-x="649" 
d="M618 724l-522 -658h454l-6 -66h-544l6 61l519 654h-424l6 65h516z" />
    <glyph glyph-name="Zcaron" unicode="&#x17d;" horiz-adv-x="649" 
d="M392 828h-56l-123 109l28 39l128 -80l144 80l22 -39zM618 724l-522 -658h454l-6 -66h-544l6 61l519 654h-424l6 65h516z" />
    <glyph glyph-name="a" unicode="a" horiz-adv-x="575" 
d="M494 -6c-67 -16 -120 9 -117 81c-34 -53 -131 -86 -222 -86c-113 0 -160 50 -155 139c6 114 94 164 210 191c84 19 180 48 185 93c6 68 -44 92 -135 92c-65 0 -154 -38 -190 -93l-28 54c45 58 135 97 225 97c134 0 213 -42 201 -157l-29 -293c-5 -56 24 -73 75 -57z
M392 334c-31 -29 -97 -51 -171 -69c-85 -21 -147 -50 -152 -133c-2 -55 29 -84 100 -84c72 0 180 35 205 108z" />
    <glyph glyph-name="aacute" unicode="&#xe1;" horiz-adv-x="575" 
d="M204 634l-16 44l155 116l46 -55zM494 -6c-67 -16 -120 9 -117 81c-34 -53 -131 -86 -222 -86c-113 0 -160 50 -155 139c6 114 94 164 210 191c84 19 180 48 185 93c6 68 -44 92 -135 92c-65 0 -154 -38 -190 -93l-28 54c45 58 135 97 225 97c134 0 213 -42 201 -157
l-29 -293c-5 -56 24 -73 75 -57zM392 334c-31 -29 -97 -51 -171 -69c-85 -21 -147 -50 -152 -133c-2 -55 29 -84 100 -84c72 0 180 35 205 108z" />
    <glyph glyph-name="uni01CE" unicode="&#x1ce;" horiz-adv-x="575" 
d="M321 646h-56l-122 109l28 39l128 -80l144 80l22 -39zM494 -6c-67 -16 -120 9 -117 81c-34 -53 -131 -86 -222 -86c-113 0 -160 50 -155 139c6 114 94 164 210 191c84 19 180 48 185 93c6 68 -44 92 -135 92c-65 0 -154 -38 -190 -93l-28 54c45 58 135 97 225 97
c134 0 212 -42 201 -157l-29 -293c-5 -56 24 -73 75 -57zM392 334c-31 -29 -97 -51 -171 -69c-85 -21 -147 -50 -152 -133c-2 -55 29 -84 100 -84c72 0 180 35 205 108z" />
    <glyph glyph-name="acircumflex" unicode="&#xe2;" horiz-adv-x="575" 
d="M429 646l-128 80l-144 -80l-22 39l144 109h56l122 -109zM494 -6c-67 -16 -120 9 -117 81c-34 -53 -131 -86 -222 -86c-113 0 -160 50 -155 139c6 114 94 164 210 191c84 19 180 48 185 93c6 68 -44 92 -135 92c-65 0 -154 -38 -190 -93l-28 54c45 58 135 97 225 97
c134 0 213 -42 201 -157l-29 -293c-5 -56 24 -73 75 -57zM392 334c-31 -29 -97 -51 -171 -69c-85 -21 -147 -50 -152 -133c-2 -55 29 -84 100 -84c72 0 180 35 205 108z" />
    <glyph glyph-name="adieresis" unicode="&#xe4;" horiz-adv-x="575" 
d="M236 678h-71l10 102h71zM424 678h-71l10 102h71zM494 -6c-67 -16 -120 9 -117 81c-34 -53 -131 -86 -222 -86c-113 0 -160 50 -155 139c6 114 94 164 210 191c84 19 180 48 185 93c6 68 -44 92 -135 92c-65 0 -154 -38 -190 -93l-28 54c45 58 135 97 225 97
c134 0 213 -42 201 -157l-29 -293c-5 -56 24 -73 75 -57zM392 334c-31 -29 -97 -51 -171 -69c-85 -21 -147 -50 -152 -133c-2 -55 29 -84 100 -84c72 0 180 35 205 108z" />
    <glyph glyph-name="agrave" unicode="&#xe0;" horiz-adv-x="575" 
d="M356 634l-165 105l58 55l131 -116zM494 -6c-67 -16 -120 9 -117 81c-34 -53 -131 -86 -222 -86c-113 0 -160 50 -155 139c6 114 94 164 210 191c84 19 180 48 185 93c6 68 -44 92 -135 92c-65 0 -154 -38 -190 -93l-28 54c45 58 135 97 225 97c134 0 213 -42 201 -157
l-29 -293c-5 -56 24 -73 75 -57zM392 334c-31 -29 -97 -51 -171 -69c-85 -21 -147 -50 -152 -133c-2 -55 29 -84 100 -84c72 0 180 35 205 108z" />
    <glyph glyph-name="amacron" unicode="&#x101;" horiz-adv-x="575" 
d="M445 688h-300l5 54h300zM494 -6c-67 -16 -120 9 -117 81c-34 -53 -131 -86 -222 -86c-113 0 -160 50 -155 139c6 114 94 164 210 191c84 19 180 48 185 93c6 68 -44 92 -135 92c-65 0 -154 -38 -190 -93l-28 54c45 58 135 97 225 97c134 0 213 -42 201 -157l-29 -293
c-5 -56 24 -73 75 -57zM392 334c-31 -29 -97 -51 -171 -69c-85 -21 -147 -50 -152 -133c-2 -55 29 -84 100 -84c72 0 180 35 205 108z" />
    <glyph glyph-name="aring" unicode="&#xe5;" horiz-adv-x="575" 
d="M406 728c-6 -56 -56 -102 -112 -102s-98 46 -92 102s55 102 111 102s99 -46 93 -102zM364 727c3 33 -22 60 -55 60s-62 -27 -65 -60s21 -59 54 -59s63 26 66 59zM494 -6c-67 -16 -120 9 -117 81c-34 -53 -131 -86 -222 -86c-113 0 -160 50 -155 139c6 114 94 164 210 191
c84 19 180 48 185 93c6 68 -44 92 -135 92c-65 0 -154 -38 -190 -93l-28 54c45 58 135 97 225 97c134 0 213 -42 201 -157l-29 -293c-5 -56 24 -73 75 -57zM392 334c-31 -29 -97 -51 -171 -69c-85 -21 -147 -50 -152 -133c-2 -55 29 -84 100 -84c72 0 180 35 205 108z" />
    <glyph glyph-name="atilde" unicode="&#xe3;" horiz-adv-x="575" 
d="M464 704c-26 -25 -59 -49 -102 -49c-27 0 -50 15 -76 31c-18 11 -48 31 -70 31c-30 0 -56 -15 -101 -60l7 77c29 28 63 49 101 49c28 0 54 -17 77 -31c26 -15 49 -31 69 -31c31 0 57 15 102 60zM494 -6c-67 -16 -120 9 -117 81c-34 -53 -131 -86 -222 -86
c-113 0 -160 50 -155 139c6 114 94 164 210 191c84 19 180 48 185 93c6 68 -44 92 -135 92c-65 0 -154 -38 -190 -93l-28 54c45 58 135 97 225 97c134 0 213 -42 201 -157l-29 -293c-5 -56 24 -73 75 -57zM392 334c-31 -29 -97 -51 -171 -69c-85 -21 -147 -50 -152 -133
c-2 -55 29 -84 100 -84c72 0 180 35 205 108z" />
    <glyph glyph-name="ae" unicode="&#xe6;" horiz-adv-x="902" 
d="M838 374c3 -25 3 -53 1 -83l-418 -58c1 -11 1 -21 2 -31c11 -94 75 -153 166 -153c75 0 157 45 197 125l33 -52c-52 -75 -121 -133 -238 -133c-92 0 -162 43 -196 119c-54 -72 -153 -119 -241 -119c-91 0 -137 33 -144 102c-2 11 -2 24 -2 37c8 110 85 163 200 191
c92 20 177 57 181 95c1 8 0 15 -1 21c-6 53 -60 69 -131 69c-65 0 -142 -32 -181 -93l-27 54c38 53 126 97 215 97c95 0 167 -26 184 -92c48 57 116 92 197 92c115 0 190 -68 203 -188zM776 372c-9 76 -66 131 -146 131c-108 0 -187 -70 -205 -213l351 49c1 11 1 23 0 33z
M372 332c-41 -29 -94 -47 -164 -67c-82 -23 -136 -42 -145 -133c-1 -8 -1 -16 0 -24c4 -38 32 -60 95 -60s158 39 208 117c-1 7 -3 15 -3 23c-3 26 -4 56 0 88c1 19 4 38 9 56z" />
    <glyph glyph-name="b" unicode="b" horiz-adv-x="600" 
d="M530 370c3 -29 3 -60 0 -94c-20 -189 -123 -287 -266 -287c-69 0 -141 35 -168 80l-23 -69h-51l77 780h69l-31 -314c28 58 104 96 183 96c119 0 195 -66 210 -192zM460 353c-12 102 -72 150 -154 150c-90 0 -173 -72 -182 -156l-20 -208c38 -55 84 -91 157 -91
c100 0 183 73 199 228c2 28 2 54 0 77z" />
    <glyph glyph-name="c" unicode="c" horiz-adv-x="562" 
d="M479 412c-32 61 -92 90 -160 90c-97 0 -214 -68 -229 -226c-3 -22 -3 -43 0 -62c12 -112 96 -165 183 -165c67 0 139 29 182 90l24 -57c-55 -62 -127 -93 -217 -93c-122 0 -227 69 -243 209c-2 24 -2 50 1 78c18 188 152 286 298 286c88 0 155 -30 196 -90z" />
    <glyph glyph-name="ccedilla" unicode="&#xe7;" horiz-adv-x="562" 
d="M479 412c-32 61 -92 90 -160 90c-97 0 -214 -68 -229 -226c-3 -22 -3 -43 0 -62c12 -112 96 -165 183 -165c67 0 139 29 182 90l24 -57c-57 -64 -120 -93 -227 -93l-9 -18c13 2 24 3 35 3c49 0 79 -20 83 -55c1 -5 0 -11 0 -17c-5 -51 -44 -82 -114 -82
c-44 0 -73 10 -94 25l21 33c11 -7 37 -18 58 -18c35 0 64 13 67 38v8c-2 18 -16 31 -42 31c-10 0 -22 -2 -36 -7l-38 20l21 45c-96 19 -171 87 -185 204c-2 23 -2 49 1 77c18 188 152 286 298 286c88 0 155 -30 196 -90z" />
    <glyph glyph-name="d" unicode="d" horiz-adv-x="610" 
d="M482 0h-62l10 92c-32 -63 -114 -103 -192 -103c-120 0 -205 69 -219 199c-3 27 -4 56 0 87c19 189 134 287 275 287c83 0 141 -36 165 -82l30 300h70zM455 398c-31 70 -85 105 -158 105c-101 0 -194 -73 -209 -228c-2 -26 -3 -49 0 -71c12 -105 80 -156 164 -156
c90 0 174 71 183 156z" />
    <glyph glyph-name="eth" unicode="&#xf0;" horiz-adv-x="610" 
d="M459 695c40 -51 60 -113 68 -183c8 -71 4 -150 -8 -233c-16 -122 -87 -290 -272 -290c-121 0 -198 73 -213 200c-3 27 -3 58 0 90c17 163 118 280 269 280c63 0 144 -37 167 -97c1 13 -1 26 -2 39c-7 59 -28 124 -68 170l-233 -93l-15 45l207 83c-31 19 -67 28 -107 28
c-39 0 -80 -9 -120 -29l-9 59c35 15 82 26 131 26c58 0 121 -15 171 -58l98 40l15 -45zM453 347c-10 96 -69 154 -154 154c-106 0 -182 -92 -195 -222c-2 -25 -2 -49 0 -72c11 -91 61 -158 150 -158c108 0 187 106 199 230c2 24 3 47 0 68z" />
    <glyph glyph-name="e" unicode="e" horiz-adv-x="585" 
d="M521 371c3 -25 3 -51 0 -80l-440 -58c1 -10 1 -20 2 -30c11 -96 80 -154 176 -154c83 0 165 46 206 125l35 -52c-54 -80 -137 -133 -249 -133c-130 0 -217 78 -231 206c-3 25 -3 52 0 81c16 171 128 286 284 286c123 0 203 -71 217 -191zM454 371c-9 79 -70 132 -155 132
c-113 0 -199 -79 -214 -213l369 49c1 11 1 21 0 32z" />
    <glyph glyph-name="e_ring" horiz-adv-x="585" 
d="M413 749c0 -7 1 -14 0 -21c-6 -56 -56 -102 -112 -102c-49 0 -86 35 -92 81c0 7 -1 14 0 21c6 56 56 102 112 102c49 0 86 -35 92 -81zM371 740c-3 27 -25 47 -54 47c-33 0 -63 -27 -66 -60c0 -4 0 -8 1 -12c3 -27 24 -47 53 -47c33 0 63 26 66 59c1 4 0 8 0 13zM522 373
c2 -26 3 -53 -1 -82l-440 -58c1 -10 1 -19 2 -28c11 -97 81 -156 177 -156c83 0 164 46 205 125l35 -52c-54 -80 -137 -133 -249 -133c-131 0 -217 79 -231 207c-3 25 -3 52 0 80c16 171 129 286 285 286c123 0 203 -71 217 -189zM454 371c-9 79 -70 132 -155 132
c-113 0 -199 -79 -214 -213l369 49c1 11 1 21 0 32z" />
    <glyph glyph-name="eacute" unicode="&#xe9;" horiz-adv-x="585" 
d="M206 634l-16 44l155 116l46 -55zM521 371c3 -25 3 -51 0 -80l-440 -58c1 -10 1 -20 2 -30c11 -96 80 -154 176 -154c83 0 165 46 206 125l35 -52c-54 -80 -137 -133 -249 -133c-130 0 -217 78 -231 206c-3 25 -3 52 0 81c16 171 128 286 284 286c123 0 203 -71 217 -191z
M454 371c-9 79 -70 132 -155 132c-113 0 -199 -79 -214 -213l369 49c1 11 1 21 0 32z" />
    <glyph glyph-name="ecaron" unicode="&#x11b;" horiz-adv-x="585" 
d="M332 646h-56l-122 109l28 39l128 -80l144 80l22 -39zM522 373c2 -26 3 -53 -1 -82l-440 -58c1 -10 1 -19 2 -28c11 -97 81 -156 177 -156c83 0 165 46 205 125l35 -52c-54 -80 -137 -133 -249 -133c-131 0 -217 79 -231 207c-3 25 -3 52 0 80c16 171 129 286 285 286
c123 0 203 -71 217 -189zM454 369c-9 81 -69 134 -155 134c-113 0 -198 -79 -214 -213l370 49c1 10 0 20 -1 30z" />
    <glyph glyph-name="ecircumflex" unicode="&#xea;" horiz-adv-x="585" 
d="M443 646l-128 80l-144 -80l-22 39l144 109h56l122 -109zM521 371c3 -25 3 -51 0 -80l-440 -58c1 -10 1 -20 2 -30c11 -96 80 -154 176 -154c83 0 165 46 206 125l35 -52c-54 -80 -137 -133 -249 -133c-130 0 -217 78 -231 206c-3 25 -3 52 0 81c16 171 128 286 284 286
c123 0 203 -71 217 -191zM454 371c-9 79 -70 132 -155 132c-113 0 -199 -79 -214 -213l369 49c1 11 1 21 0 32z" />
    <glyph glyph-name="edieresis" unicode="&#xeb;" horiz-adv-x="585" 
d="M252 678h-71l10 102h71zM440 678h-71l10 102h71zM521 371c3 -25 3 -51 0 -80l-440 -58c1 -10 1 -20 2 -30c11 -96 80 -154 176 -154c83 0 165 46 206 125l35 -52c-54 -80 -137 -133 -249 -133c-130 0 -217 78 -231 206c-3 25 -3 52 0 81c16 171 128 286 284 286
c123 0 203 -71 217 -191zM454 371c-9 79 -70 132 -155 132c-113 0 -199 -79 -214 -213l369 49c1 11 1 21 0 32z" />
    <glyph glyph-name="egrave" unicode="&#xe8;" horiz-adv-x="585" 
d="M380 634l-165 105l58 55l131 -116zM521 371c3 -25 3 -51 0 -80l-440 -58c1 -10 1 -20 2 -30c11 -96 80 -154 176 -154c83 0 165 46 206 125l35 -52c-54 -80 -137 -133 -249 -133c-130 0 -217 78 -231 206c-3 25 -3 52 0 81c16 171 128 286 284 286
c123 0 203 -71 217 -191zM454 371c-9 79 -70 132 -155 132c-113 0 -199 -79 -214 -213l369 49c1 11 1 21 0 32z" />
    <glyph glyph-name="emacron" unicode="&#x113;" horiz-adv-x="585" 
d="M461 688h-300l5 54h300zM521 371c3 -25 3 -51 0 -80l-440 -58c1 -10 1 -20 2 -30c11 -96 80 -154 176 -154c83 0 165 46 206 125l35 -52c-54 -80 -137 -133 -249 -133c-130 0 -217 78 -231 206c-3 25 -3 52 0 81c16 171 128 286 284 286c123 0 203 -71 217 -191zM454 371
c-9 79 -70 132 -155 132c-113 0 -199 -79 -214 -213l369 49c1 11 1 21 0 32z" />
    <glyph glyph-name="uni1EBD" unicode="&#x1ebd;" horiz-adv-x="585" 
d="M480 704c-25 -25 -58 -49 -101 -49c-27 0 -50 15 -77 31c-17 11 -47 31 -69 31c-30 0 -56 -15 -102 -60l8 77c29 28 63 49 101 49c28 0 53 -17 76 -31c26 -15 50 -31 70 -31c31 0 57 15 102 60zM521 373c2 -26 3 -53 -1 -82l-440 -58c1 -10 1 -19 2 -28
c11 -97 81 -156 177 -156c83 0 165 46 206 125l35 -52c-54 -80 -138 -133 -250 -133c-131 0 -217 79 -231 207c-3 25 -3 52 0 80c17 171 129 286 285 286c123 0 203 -71 217 -189zM453 369c-9 81 -68 134 -154 134c-113 0 -199 -79 -215 -213l370 49c1 10 0 21 -1 30z" />
    <glyph glyph-name="f" unicode="f" horiz-adv-x="287" 
d="M305 738c-111 -3 -122 -33 -129 -102l-9 -85h102l-5 -59h-100l-49 -492h-70l49 492h-77l5 59h77l9 87c10 99 46 152 188 158z" />
    <glyph glyph-name="g" unicode="g" horiz-adv-x="608" 
d="M483 5c-12 -134 -110 -208 -277 -208c-70 0 -147 12 -191 30l-5 74c57 -27 134 -43 202 -43c114 0 194 52 204 153l10 98c-30 -56 -106 -95 -184 -95c-118 0 -204 61 -218 189c-3 25 -2 53 0 84c19 186 130 275 271 275c87 0 145 -34 168 -83l19 72h55zM456 399
c-31 71 -85 104 -158 104c-100 0 -190 -63 -206 -216c-3 -26 -2 -49 0 -70c12 -104 80 -148 163 -148c89 0 175 71 183 154z" />
    <glyph glyph-name="h" unicode="h" horiz-adv-x="601" 
d="M513 424c1 -14 1 -28 0 -43l-38 -381h-70l36 365c1 12 2 23 1 33c-8 67 -60 105 -130 105c-75 0 -148 -39 -183 -118l-38 -385h-69l77 780h69l-31 -308c29 48 102 90 194 90c100 0 172 -50 182 -138z" />
    <glyph glyph-name="i" unicode="i" horiz-adv-x="225" 
d="M163 663h-76l12 117h76zM96 0h-72l54 551h72z" />
    <glyph glyph-name="dotlessi" unicode="&#x131;" horiz-adv-x="225" 
d="M96 0h-72l54 551h72z" />
    <glyph glyph-name="i_ring" horiz-adv-x="225" 
d="M231 749c0 -7 1 -14 0 -21c-6 -56 -55 -102 -111 -102c-49 0 -87 35 -93 81c0 7 -1 14 0 21c6 56 56 102 112 102c49 0 86 -35 92 -81zM189 740c-3 27 -25 47 -54 47c-33 0 -63 -27 -66 -60c0 -4 0 -8 1 -12c3 -27 25 -47 54 -47c33 0 62 26 65 59c1 4 0 8 0 13zM94 0
h-72l54 551h72z" />
    <glyph glyph-name="iacute" unicode="&#xed;" horiz-adv-x="225" 
d="M47 634l-16 44l155 116l46 -55zM95 0h-72l54 551h72z" />
    <glyph glyph-name="uni01D0" unicode="&#x1d0;" horiz-adv-x="225" 
d="M153 646h-56l-122 109l28 39l128 -80l144 80l22 -39zM94 0h-72l54 551h72z" />
    <glyph glyph-name="icircumflex" unicode="&#xee;" horiz-adv-x="225" 
d="M261 646l-128 80l-144 -80l-22 39l144 109h56l122 -109zM94 0h-72l54 551h72z" />
    <glyph glyph-name="idieresis" unicode="&#xef;" horiz-adv-x="225" 
d="M63 678h-71l10 102h71zM251 678h-71l10 102h71zM94 0h-72l54 551h72z" />
    <glyph glyph-name="igrave" unicode="&#xec;" horiz-adv-x="225" 
d="M196 634l-165 105l58 55l131 -116zM96 0h-72l54 551h72z" />
    <glyph glyph-name="imacron" unicode="&#x12b;" horiz-adv-x="225" 
d="M272 688h-300l5 54h300zM94 0h-72l54 551h72z" />
    <glyph glyph-name="itilde" unicode="&#x129;" horiz-adv-x="225" 
d="M301 704c-26 -25 -59 -49 -102 -49c-27 0 -49 15 -76 31c-18 11 -47 31 -69 31c-30 0 -57 -15 -102 -60l7 77c29 28 64 49 102 49c28 0 53 -17 76 -31c26 -15 49 -31 69 -31c31 0 58 15 102 60zM94 0h-72l54 551h72z" />
    <glyph glyph-name="j" unicode="j" horiz-adv-x="251" 
d="M190 663h-74l12 117h74zM119 -33c-12 -122 -73 -161 -218 -161l-14 66h21c108 0 135 23 143 103l56 576h69z" />
    <glyph glyph-name="k" unicode="k" horiz-adv-x="522" 
d="M239 312l236 -312h-84l-203 271l-86 -77l-19 -194h-68l77 780h70l-49 -500l293 271h87z" />
    <glyph glyph-name="l" unicode="l" horiz-adv-x="225" 
d="M98 0h-73l77 780h73z" />
    <glyph glyph-name="lslash" unicode="&#x142;" horiz-adv-x="278" 
d="M261 457l-102 -78l-38 -379h-73l32 319l-94 -72l5 65l95 72l39 396h73l-34 -336l104 78z" />
    <glyph glyph-name="m" unicode="m" horiz-adv-x="836" 
d="M750 434c1 -16 1 -34 -1 -52l-37 -382h-71l36 369c2 17 1 32 0 45c-7 59 -42 89 -103 89c-67 0 -132 -56 -140 -128l-37 -375h-69l36 369c2 17 2 33 1 47c-7 57 -42 87 -103 87c-54 0 -103 -38 -131 -97l-40 -406h-69l54 551h65l-6 -68c28 43 79 79 149 79
c78 0 127 -34 144 -96c25 52 89 96 168 96c89 0 144 -47 154 -128z" />
    <glyph glyph-name="n" unicode="n" horiz-adv-x="601" 
d="M512 423c1 -14 1 -29 0 -45l-37 -378h-70l36 365c1 12 2 23 1 33c-8 67 -60 105 -130 105c-75 0 -148 -39 -183 -118l-38 -385h-69l54 551h65l-7 -82c27 50 104 93 197 93c100 0 171 -52 181 -139z" />
    <glyph glyph-name="ntilde" unicode="&#xf1;" horiz-adv-x="601" 
d="M489 704c-26 -25 -59 -49 -102 -49c-27 0 -50 15 -76 31c-18 11 -48 31 -70 31c-30 0 -56 -15 -101 -60l7 77c29 28 63 49 101 49c28 0 54 -17 77 -31c26 -15 49 -31 69 -31c31 0 57 15 102 60zM512 423c1 -14 1 -29 0 -45l-37 -378h-70l36 365c1 12 2 23 1 33
c-8 67 -60 105 -130 105c-75 0 -148 -39 -183 -118l-38 -385h-69l54 551h65l-7 -82c27 50 104 93 197 93c100 0 171 -52 181 -139z" />
    <glyph glyph-name="o" unicode="o" horiz-adv-x="616" 
d="M545 355c2 -24 2 -51 0 -79c-19 -175 -130 -287 -292 -287c-132 0 -219 78 -233 206c-3 25 -3 52 0 81c17 174 131 286 289 286c136 0 221 -79 236 -207zM473 343c-12 102 -77 159 -169 159c-104 0 -201 -83 -214 -226c-3 -23 -2 -44 0 -63c11 -103 81 -164 168 -164
c111 0 201 83 216 227c2 24 1 46 -1 67z" />
    <glyph glyph-name="o_ring" horiz-adv-x="616" 
d="M429 749c0 -7 1 -14 0 -21c-6 -56 -55 -102 -111 -102c-49 0 -87 35 -93 81c0 7 -1 14 0 21c6 56 56 102 112 102c49 0 86 -35 92 -81zM387 740c-3 27 -25 47 -54 47c-33 0 -63 -27 -66 -60c0 -4 0 -8 1 -12c3 -27 24 -47 53 -47c33 0 63 26 66 59c1 4 0 8 0 13zM544 357
c3 -25 3 -52 1 -81c-18 -175 -130 -287 -292 -287c-132 0 -219 79 -233 207c-3 25 -3 52 0 80c17 174 132 286 290 286c135 0 220 -79 234 -205zM474 344c-12 101 -78 158 -170 158c-104 0 -200 -83 -214 -226c-3 -22 -3 -43 0 -63c11 -103 81 -164 169 -164
c111 0 201 83 215 227c2 24 2 47 0 68z" />
    <glyph glyph-name="oacute" unicode="&#xf3;" horiz-adv-x="616" 
d="M222 634l-16 44l155 116l46 -55zM545 355c2 -24 2 -51 0 -79c-19 -175 -130 -287 -292 -287c-132 0 -219 78 -233 206c-3 25 -3 52 0 81c17 174 131 286 289 286c136 0 221 -79 236 -207zM473 343c-12 102 -77 159 -169 159c-104 0 -201 -83 -214 -226
c-3 -23 -2 -44 0 -63c11 -103 81 -164 168 -164c111 0 201 83 216 227c2 24 1 46 -1 67z" />
    <glyph glyph-name="uni01D2" unicode="&#x1d2;" horiz-adv-x="616" 
d="M348 646h-56l-122 109l28 39l128 -80l144 80l22 -39zM545 355c2 -24 2 -51 0 -79c-19 -175 -130 -287 -292 -287c-132 0 -219 78 -233 206c-3 25 -3 52 0 81c17 174 131 286 289 286c136 0 221 -79 236 -207zM473 343c-12 102 -77 159 -169 159
c-104 0 -201 -83 -214 -226c-3 -23 -2 -44 0 -63c11 -103 81 -164 168 -164c111 0 201 83 216 227c2 24 1 46 -1 67z" />
    <glyph glyph-name="ocircumflex" unicode="&#xf4;" horiz-adv-x="616" 
d="M455 646l-128 80l-144 -80l-22 39l144 109h56l122 -109zM545 355c2 -24 2 -51 0 -79c-19 -175 -130 -287 -292 -287c-132 0 -219 78 -233 206c-3 25 -3 52 0 81c17 174 131 286 289 286c136 0 221 -79 236 -207zM473 343c-12 102 -77 159 -169 159
c-104 0 -201 -83 -214 -226c-3 -23 -2 -44 0 -63c11 -103 81 -164 168 -164c111 0 201 83 216 227c2 24 1 46 -1 67z" />
    <glyph glyph-name="odieresis" unicode="&#xf6;" horiz-adv-x="616" 
d="M261 678h-71l10 102h71zM449 678h-71l10 102h71zM545 355c2 -24 2 -51 0 -79c-19 -175 -130 -287 -292 -287c-132 0 -219 78 -233 206c-3 25 -3 52 0 81c17 174 131 286 289 286c136 0 221 -79 236 -207zM473 343c-12 102 -77 159 -169 159c-104 0 -201 -83 -214 -226
c-3 -23 -2 -44 0 -63c11 -103 81 -164 168 -164c111 0 201 83 216 227c2 24 1 46 -1 67z" />
    <glyph glyph-name="ograve" unicode="&#xf2;" horiz-adv-x="616" 
d="M388 634l-165 105l58 55l131 -116zM545 355c2 -24 2 -51 0 -79c-19 -175 -130 -287 -292 -287c-132 0 -219 78 -233 206c-3 25 -3 52 0 81c17 174 131 286 289 286c136 0 221 -79 236 -207zM473 343c-12 102 -77 159 -169 159c-104 0 -201 -83 -214 -226
c-3 -23 -2 -44 0 -63c11 -103 81 -164 168 -164c111 0 201 83 216 227c2 24 1 46 -1 67z" />
    <glyph glyph-name="omacron" unicode="&#x14d;" horiz-adv-x="616" 
d="M470 688h-300l5 54h300zM545 355c2 -24 2 -51 0 -79c-19 -175 -130 -287 -292 -287c-132 0 -219 78 -233 206c-3 25 -3 52 0 81c17 174 131 286 289 286c136 0 221 -79 236 -207zM473 343c-12 102 -77 159 -169 159c-104 0 -201 -83 -214 -226c-3 -23 -2 -44 0 -63
c11 -103 81 -164 168 -164c111 0 201 83 216 227c2 24 1 46 -1 67z" />
    <glyph glyph-name="oslash" unicode="&#xf8;" horiz-adv-x="616" 
d="M502 472c23 -32 37 -70 42 -116c3 -25 3 -51 1 -80c-19 -175 -130 -287 -292 -287c-63 0 -116 18 -155 50l-57 -62l-32 33l57 62c-25 32 -41 74 -46 122c-3 26 -3 53 0 82c17 174 131 286 289 286c68 0 123 -20 163 -55l50 53l32 -33zM424 455c-29 31 -71 47 -120 47
c-104 0 -201 -83 -214 -226c-3 -23 -2 -44 0 -64c4 -33 13 -61 28 -85zM473 342c-3 29 -10 54 -22 75l-304 -326c31 -27 68 -42 111 -42c111 0 201 83 216 227c2 24 1 46 -1 66z" />
    <glyph glyph-name="otilde" unicode="&#xf5;" horiz-adv-x="616" 
d="M496 704c-26 -25 -59 -49 -102 -49c-27 0 -50 15 -76 31c-18 11 -48 31 -70 31c-30 0 -56 -15 -101 -60l7 77c29 28 63 49 101 49c28 0 54 -17 77 -31c26 -15 49 -31 69 -31c31 0 57 15 102 60zM545 355c2 -24 2 -51 0 -79c-19 -175 -130 -287 -292 -287
c-132 0 -219 78 -233 206c-3 25 -3 52 0 81c17 174 131 286 289 286c136 0 221 -79 236 -207zM473 343c-12 102 -77 159 -169 159c-104 0 -201 -83 -214 -226c-3 -23 -2 -44 0 -63c11 -103 81 -164 168 -164c111 0 201 83 216 227c2 24 1 46 -1 67z" />
    <glyph glyph-name="oe" unicode="&#x153;" horiz-adv-x="987" 
d="M925 374c3 -25 2 -53 0 -83l-418 -58c0 -12 1 -23 2 -33c11 -92 76 -151 165 -151c75 0 158 44 197 125l33 -52c-52 -75 -118 -133 -238 -133c-95 0 -166 47 -199 128c-48 -77 -128 -128 -229 -128c-124 0 -206 76 -221 202c-3 27 -2 55 1 85c16 170 122 286 276 286
c96 0 169 -47 203 -130c48 79 125 130 223 130c115 0 192 -69 205 -188zM861 372c-9 76 -66 131 -146 131c-108 0 -187 -70 -205 -213l351 49c1 11 1 23 0 33zM449 346c-12 99 -73 156 -160 156c-99 0 -192 -82 -205 -226c-3 -23 -2 -45 0 -66c11 -100 76 -161 159 -161
c103 0 191 81 206 227c2 25 2 48 0 70z" />
    <glyph glyph-name="p" unicode="p" horiz-adv-x="600" 
d="M529 368c3 -28 4 -58 1 -92c-20 -189 -124 -287 -267 -287c-65 0 -137 33 -166 74l-25 -256h-69l73 744h64l-8 -92c28 61 108 103 187 103c118 0 196 -67 210 -194zM460 353c-12 102 -72 150 -154 150c-90 0 -173 -72 -182 -156l-20 -208c38 -55 84 -91 157 -91
c100 0 183 73 199 228c2 28 2 54 0 77z" />
    <glyph glyph-name="thorn" unicode="&#xfe;" horiz-adv-x="600" 
d="M530 368c3 -27 3 -58 0 -92c-19 -186 -121 -287 -267 -287c-59 0 -136 29 -166 74l-25 -256h-69l96 973h69l-31 -309c32 50 112 91 182 91c117 0 196 -66 211 -194zM460 353c-12 103 -74 150 -154 150c-85 0 -173 -67 -182 -156l-20 -208c39 -55 75 -91 157 -91
c94 0 182 65 199 228c2 29 2 54 0 77z" />
    <glyph glyph-name="q" unicode="q" horiz-adv-x="610" 
d="M464 -193h-68l27 279c-29 -57 -104 -97 -183 -97c-120 0 -206 69 -221 200c-2 26 -3 55 1 86c19 189 134 287 275 287c87 0 146 -35 168 -83l20 72h54zM455 398c-30 70 -83 105 -157 105c-101 0 -193 -73 -208 -228c-2 -26 -3 -50 0 -71c12 -106 79 -156 164 -156
c90 0 172 71 181 156z" />
    <glyph glyph-name="r" unicode="r" horiz-adv-x="332" 
d="M317 494c-11 1 -22 2 -33 2c-67 0 -120 -31 -154 -94l-39 -402h-69l54 551h63l-6 -61c36 48 91 68 172 72z" />
    <glyph glyph-name="s" unicode="s" horiz-adv-x="510" 
d="M410 415c-27 57 -84 92 -161 92c-79 0 -133 -35 -137 -85c0 -6 -1 -11 0 -16c4 -35 37 -59 123 -80c143 -32 207 -84 198 -183c-9 -96 -83 -154 -230 -154c-103 0 -179 49 -210 116l42 55c26 -66 94 -111 173 -111c96 0 149 36 155 92c7 64 -45 101 -155 126
c-109 24 -158 67 -165 124c-1 9 -1 18 0 27c9 86 86 144 211 144c101 0 170 -39 194 -92z" />
    <glyph glyph-name="scaron" unicode="&#x161;" horiz-adv-x="510" 
d="M293 646h-56l-122 109l28 39l128 -80l144 80l22 -39zM410 415c-27 57 -84 92 -161 92c-79 0 -133 -35 -137 -85c0 -6 -1 -11 0 -16c4 -35 37 -59 123 -80c143 -32 207 -84 198 -183c-9 -96 -83 -154 -230 -154c-103 0 -179 49 -210 116l42 55c26 -66 94 -111 173 -111
c96 0 149 36 155 92c7 64 -45 101 -155 126c-109 24 -158 67 -165 124c-1 9 -1 18 0 27c9 86 86 144 211 144c101 0 170 -39 194 -92z" />
    <glyph glyph-name="germandbls" unicode="&#xdf;" horiz-adv-x="573" 
d="M471 657c2 -17 2 -35 0 -55c-7 -75 -53 -161 -134 -181c72 -13 130 -69 140 -155c2 -16 1 -33 0 -51c-17 -170 -114 -222 -217 -222c-41 0 -101 12 -139 35l35 69c36 -25 79 -35 117 -35c69 0 123 41 135 153c1 14 0 27 -1 40c-10 85 -81 138 -172 138h-54l6 58h54
c115 0 154 87 160 151c2 12 2 24 0 36c-6 59 -48 100 -110 100c-87 0 -134 -53 -148 -175l-56 -563h-69l56 563c14 146 81 233 222 233c95 0 164 -45 175 -139z" />
    <glyph glyph-name="t" unicode="t" horiz-adv-x="320" 
d="M273 492h-99l-35 -351c-2 -18 -2 -32 -1 -44c5 -41 34 -46 122 -46l-25 -62c-111 0 -160 20 -168 89c-2 15 -1 33 1 53l36 361h-77l5 59h79l17 174h68l-17 -174h99z" />
    <glyph glyph-name="u" unicode="u" horiz-adv-x="601" 
d="M473 0h-66l8 82c-29 -51 -107 -93 -197 -93c-100 0 -173 52 -183 140c-1 13 -1 27 1 42l37 380h69l-35 -363c-2 -12 -2 -23 -1 -34c8 -67 62 -104 131 -104c75 0 148 39 183 118l37 383h70z" />
    <glyph glyph-name="uacute" unicode="&#xfa;" horiz-adv-x="601" 
d="M226 634l-16 44l155 116l46 -55zM473 0h-66l8 82c-29 -51 -107 -93 -197 -93c-100 0 -173 52 -183 140c-1 13 -1 27 1 42l37 380h69l-35 -363c-2 -12 -2 -23 -1 -34c8 -67 62 -104 131 -104c75 0 148 39 183 118l37 383h70z" />
    <glyph glyph-name="uni01D4" unicode="&#x1d4;" horiz-adv-x="601" 
d="M336 646h-56l-122 109l28 39l128 -80l144 80l22 -39zM473 0h-66l8 82c-29 -51 -107 -93 -197 -93c-100 0 -173 52 -183 140c-1 13 -1 27 1 42l37 380h69l-35 -363c-2 -12 -2 -23 -1 -34c8 -67 62 -104 131 -104c75 0 148 39 183 118l37 383h70z" />
    <glyph glyph-name="ucircumflex" unicode="&#xfb;" horiz-adv-x="601" 
d="M441 646l-128 80l-144 -80l-20 39l144 109h56l122 -109zM473 0h-66l8 82c-29 -51 -107 -93 -197 -93c-100 0 -173 52 -183 140c-1 13 -1 27 1 42l37 380h69l-35 -363c-2 -12 -2 -23 -1 -34c8 -67 62 -104 131 -104c75 0 148 39 183 118l37 383h70z" />
    <glyph glyph-name="udieresis" unicode="&#xfc;" horiz-adv-x="601" 
d="M253 678h-71l10 102h71zM441 678h-71l10 102h71zM473 0h-66l8 82c-29 -51 -107 -93 -197 -93c-100 0 -173 52 -183 140c-1 13 -1 27 1 42l37 380h69l-35 -363c-2 -12 -2 -23 -1 -34c8 -67 62 -104 131 -104c75 0 148 39 183 118l37 383h70z" />
    <glyph glyph-name="ugrave" unicode="&#xf9;" horiz-adv-x="601" 
d="M372 634l-165 105l58 55l131 -116zM473 0h-66l8 82c-29 -51 -107 -93 -197 -93c-100 0 -173 52 -183 140c-1 13 -1 27 1 42l37 380h69l-35 -363c-2 -12 -2 -23 -1 -34c8 -67 62 -104 131 -104c75 0 148 39 183 118l37 383h70z" />
    <glyph glyph-name="umacron" unicode="&#x16b;" horiz-adv-x="601" 
d="M462 688h-300l5 54h300zM473 0h-66l8 82c-29 -51 -107 -93 -197 -93c-100 0 -173 52 -183 140c-1 13 -1 27 1 42l37 380h69l-35 -363c-2 -12 -2 -23 -1 -34c8 -67 62 -104 131 -104c75 0 148 39 183 118l37 383h70z" />
    <glyph glyph-name="uring" unicode="&#x16f;" horiz-adv-x="601" 
d="M421 749c0 -7 1 -14 0 -21c-6 -56 -56 -102 -112 -102c-49 0 -86 35 -92 81c0 7 -1 14 0 21c6 56 55 102 111 102c49 0 87 -35 93 -81zM379 740c-3 27 -27 47 -55 47c-33 0 -62 -27 -66 -60c0 -4 0 -8 1 -12c3 -27 25 -47 54 -47c33 0 62 26 65 59c1 5 1 9 1 13zM473 0
h-66l8 82c-29 -51 -107 -93 -197 -93c-100 0 -173 52 -183 140c-1 13 -1 27 1 42l37 380h69l-35 -363c-2 -12 -2 -23 -1 -34c8 -67 62 -104 131 -104c75 0 148 39 183 118l37 383h70z" />
    <glyph glyph-name="utilde" unicode="&#x169;" horiz-adv-x="601" 
d="M489 704c-26 -25 -59 -49 -102 -49c-27 0 -50 15 -76 31c-18 11 -48 31 -70 31c-30 0 -56 -15 -101 -60l7 77c29 28 64 49 102 49c28 0 53 -17 76 -31c26 -15 49 -31 69 -31c31 0 58 15 102 60zM473 0h-66l9 82c-30 -51 -108 -93 -198 -93c-100 0 -173 52 -183 140
c-1 13 -1 27 1 42l37 380h69l-35 -363c-2 -12 -2 -23 -1 -34c8 -67 62 -104 131 -104c75 0 148 39 183 118l37 383h70z" />
    <glyph glyph-name="v" unicode="v" horiz-adv-x="509" 
d="M241 0h-70l-160 551h72l117 -400c3 -11 6 -31 8 -50c2 -13 3 -25 2 -33h2c5 21 22 67 28 84l184 399h76z" />
    <glyph glyph-name="w" unicode="w" horiz-adv-x="733" 
d="M510 0h-80l-69 416c-1 2 -1 3 -1 5c-2 20 -2 53 0 77c0 0 -2 -1 -2 0c-4 -25 -10 -61 -18 -83l-152 -415h-71l-108 551h65l79 -419c2 -18 4 -60 2 -79h2c2 16 10 61 17 78l149 420h81l70 -420c0 -2 0 -3 1 -5c2 -22 1 -55 0 -73h3c2 19 8 56 16 78l159 420h73z" />
    <glyph glyph-name="x" unicode="x" horiz-adv-x="493" 
d="M261 286l182 -286h-77l-147 233l-189 -233h-85l238 290l-164 261h74l132 -208l171 208h80z" />
    <glyph glyph-name="y" unicode="y" horiz-adv-x="524" 
d="M242 -60c-46 -104 -103 -142 -243 -142l-13 64h19c115 0 139 29 191 142l-180 547h69l132 -394c7 -20 14 -49 16 -71c1 -8 2 -15 1 -20h2c5 22 15 65 27 93l169 392h77z" />
    <glyph glyph-name="yacute" unicode="&#xfd;" horiz-adv-x="524" 
d="M186 634l-16 44l155 116l46 -55zM242 -60c-46 -104 -103 -142 -243 -142l-13 64h19c115 0 139 29 191 142l-180 547h69l132 -394c9 -29 18 -85 18 -85c4 22 16 59 28 87l169 392h77z" />
    <glyph glyph-name="ydieresis" unicode="&#xff;" horiz-adv-x="524" 
d="M225 678h-71l10 102h71zM413 678h-71l10 102h71zM242 -60c-46 -104 -103 -142 -243 -142l-13 64h19c115 0 139 29 191 142l-180 547h69l132 -394c9 -29 18 -85 18 -85c4 22 16 59 28 87l169 392h77z" />
    <glyph glyph-name="z" unicode="z" horiz-adv-x="514" 
d="M464 502l-391 -442h364l-6 -60h-454l5 51l389 439h-322l6 61h413z" />
    <glyph glyph-name="zcaron" unicode="&#x17e;" horiz-adv-x="514" 
d="M297 646h-56l-122 109l28 39l128 -80l144 80l22 -39zM464 502l-391 -442h364l-6 -60h-454l5 51l389 439h-322l6 61h413z" />
    <glyph glyph-name="ordfeminine" unicode="&#xaa;" horiz-adv-x="310" 
d="M285 492c-9 -2 -18 -3 -25 -3c-8 0 -16 1 -22 4c-12 6 -18 17 -20 33c-21 -19 -64 -38 -108 -38c-52 0 -77 19 -81 56c-1 6 0 12 0 19c2 55 39 80 109 99c44 12 86 25 88 43c0 4 0 7 -1 11c-2 21 -20 30 -62 30c-31 0 -66 -14 -95 -49l-18 35c26 32 68 53 118 53
c57 0 99 -14 105 -61c0 -6 0 -14 -1 -22l-14 -147c-1 -4 0 -7 0 -10c1 -6 3 -10 6 -13c6 -3 18 -2 34 3zM222 656c-22 -11 -26 -13 -78 -29c-41 -13 -70 -22 -71 -62c0 -3 -1 -7 0 -10c2 -17 12 -27 45 -27c37 0 81 15 97 50z" />
    <glyph glyph-name="ordmasculine" unicode="&#xba;" horiz-adv-x="310" 
d="M300 680c1 -14 1 -28 -1 -43c-8 -86 -64 -148 -151 -148c-66 0 -113 40 -121 108c-2 13 -2 26 -1 40c10 87 69 148 152 148c69 0 114 -38 122 -105zM254 670c-6 46 -34 75 -81 75s-95 -38 -102 -108c0 -10 0 -20 1 -29c5 -47 37 -78 81 -78c49 0 94 35 100 107
c2 12 2 23 1 33z" />
    <glyph glyph-name="uni03A9" unicode="&#x3a9;" horiz-adv-x="783" 
d="M714 511c4 -37 3 -76 0 -114c-14 -136 -102 -272 -210 -333h193l-6 -64h-303l6 60c126 41 233 187 247 333c4 36 4 71 0 104c-15 132 -90 236 -235 236c-180 0 -286 -163 -304 -340c-3 -26 -2 -52 1 -78c13 -117 81 -221 181 -255l-6 -60h-301l6 64h191
c-76 48 -130 146 -142 253c-3 26 -4 53 -1 80c20 202 148 399 381 399c191 0 284 -130 302 -285z" />
    <glyph glyph-name="uni03BC" unicode="&#x3bc;" horiz-adv-x="601" 
d="M473 0h-66l8 82c-29 -49 -101 -93 -197 -93c-46 0 -92 10 -127 39l-20 -208h-69l71 731h69l-35 -363c-1 -11 -2 -22 -1 -32c8 -67 62 -106 131 -106c68 0 150 37 183 118l37 383h70z" />
    <glyph glyph-name="zero" unicode="0" 
d="M604 536c5 -46 6 -95 1 -146c-23 -230 -130 -406 -316 -406c-143 0 -219 102 -236 254c-5 46 -5 97 1 152c21 223 127 406 314 406c143 0 219 -109 236 -260zM531 519c-14 121 -68 210 -169 210c-134 0 -218 -154 -235 -339c-5 -47 -5 -93 0 -134
c14 -120 68 -205 168 -205c133 0 218 152 237 339c3 45 3 89 -1 129z" />
    <glyph glyph-name="one" unicode="1" 
d="M356 0h-73l65 665l-137 -72l-19 62c68 27 139 71 178 125h63z" />
    <glyph glyph-name="two" unicode="2" 
d="M607 630c2 -15 2 -31 1 -47c-11 -107 -87 -186 -258 -260c-119 -51 -210 -148 -226 -256h441l-6 -67h-523l5 40c25 156 136 277 276 337c141 62 206 127 214 205c0 11 0 22 -1 32c-8 71 -66 117 -165 117c-94 0 -181 -72 -199 -189l-69 16c24 149 146 238 277 238
c140 0 222 -67 233 -166z" />
    <glyph glyph-name="three" unicode="3" 
d="M585 642c1 -13 2 -27 1 -42c-11 -103 -85 -167 -176 -182c82 -10 153 -67 163 -158c2 -14 2 -29 1 -45c-15 -138 -117 -231 -293 -231c-149 0 -240 73 -258 188l70 24c13 -95 92 -146 193 -146c109 0 206 62 216 167c1 11 1 22 0 32c-9 75 -75 131 -192 131h-94l6 67h84
c106 0 196 63 205 144c0 11 0 22 -1 32c-8 71 -69 108 -156 108c-101 0 -170 -59 -191 -129l-66 18c31 94 124 176 265 176c127 0 212 -57 223 -154z" />
    <glyph glyph-name="four" unicode="4" 
d="M615 178h-146l-18 -178h-68l18 178h-397l6 67l452 535h66l-53 -537h146zM85 243h322l42 430z" />
    <glyph glyph-name="five" unicode="5" 
d="M581 716h-374l-54 -276s112 78 202 78c104 0 220 -51 236 -191c2 -21 2 -44 0 -69c-19 -189 -156 -274 -299 -274c-132 0 -242 69 -260 177l69 24c16 -93 100 -135 198 -135c96 0 208 62 223 207c2 19 2 37 0 53c-13 109 -102 149 -181 149c-73 0 -166 -44 -202 -115
l-70 15l81 421h438z" />
    <glyph glyph-name="six" unicode="6" 
d="M554 612c-25 84 -86 120 -177 120c-111 0 -232 -91 -257 -352c28 63 125 132 235 132c115 0 227 -60 242 -192c2 -19 2 -40 0 -62c-19 -189 -154 -274 -293 -274c-133 0 -235 73 -255 247c-5 42 -4 89 1 142c29 301 178 423 331 423c120 0 204 -52 236 -152zM524 304
c-11 100 -95 146 -178 146c-98 0 -204 -72 -229 -185c0 -9 1 -18 2 -26c14 -127 92 -191 190 -191c89 0 201 60 215 208c2 17 2 33 0 48z" />
    <glyph glyph-name="seven" unicode="7" 
d="M642 728c-236 -206 -364 -526 -386 -730h-77c30 264 196 547 363 716h-439l6 66h538z" />
    <glyph glyph-name="eight" unicode="8" 
d="M602 637c2 -14 2 -29 0 -44c-6 -71 -43 -140 -135 -169c81 -28 123 -78 131 -150c2 -17 2 -35 0 -54c-13 -137 -133 -236 -309 -236c-153 0 -250 75 -262 185c-2 16 -2 33 0 51c9 102 70 173 177 202c-74 23 -102 71 -108 124c-2 15 -2 31 -1 47c13 120 126 203 274 203
c132 0 222 -60 233 -159zM534 616c-8 66 -72 117 -171 117c-107 0 -190 -58 -197 -142c-1 -10 -1 -19 0 -28c8 -69 77 -110 169 -110c105 0 189 52 199 138c1 8 1 17 0 25zM526 260c-9 80 -81 130 -196 130c-132 0 -220 -66 -230 -164c-1 -13 -1 -25 0 -37
c11 -94 103 -141 196 -141c108 0 218 56 230 178c2 12 2 23 0 34z" />
    <glyph glyph-name="nine" unicode="9" 
d="M604 552c5 -41 4 -89 -1 -142c-31 -314 -161 -426 -330 -426c-128 0 -219 66 -246 166l62 32c23 -85 101 -134 189 -134c129 0 231 96 258 360c-34 -74 -127 -136 -237 -136c-115 0 -227 59 -242 189c-2 19 -2 39 1 61c18 189 153 274 291 274c133 0 235 -70 255 -244z
M534 545c-14 126 -93 187 -189 187c-94 0 -202 -60 -217 -208c-1 -16 -1 -31 0 -44c12 -99 97 -144 181 -144c97 0 202 69 227 182c0 9 -1 19 -2 27z" />
    <glyph glyph-name="zero.zero" 
d="M538 717c36 -45 58 -108 66 -181c5 -45 6 -95 1 -146c-23 -230 -130 -406 -316 -406c-58 0 -105 17 -140 46l-33 -56h-51l51 89c-34 44 -55 104 -63 174c-5 47 -5 98 1 153c21 223 127 406 314 406c56 0 102 -17 139 -46c10 20 20 37 20 37h50zM468 682
c-26 30 -62 47 -106 47c-134 0 -218 -154 -235 -339c-5 -47 -5 -92 0 -133c5 -45 15 -85 32 -118zM532 519c-5 47 -17 90 -36 124l-309 -545c27 -29 63 -47 108 -47c133 0 218 152 237 339c4 45 4 89 0 129z" />
    <glyph glyph-name="uni2080" unicode="&#x2080;" horiz-adv-x="350" 
d="M303 279c3 -22 2 -45 0 -69c-13 -125 -72 -216 -171 -216c-73 0 -124 65 -134 153c-2 20 -2 41 0 63c13 123 72 216 171 216c78 0 125 -62 134 -147zM249 269c-6 60 -33 104 -82 104c-61 0 -107 -75 -116 -163c-2 -18 -2 -36 0 -53c7 -60 37 -109 84 -109
c61 0 107 81 115 162c2 21 1 41 -1 59z" />
    <glyph glyph-name="uni2081" unicode="&#x2081;" horiz-adv-x="350" 
d="M167 0h-57l33 347l-80 -31l-12 41c51 16 83 35 106 63h51z" />
    <glyph glyph-name="uni2082" unicode="&#x2082;" horiz-adv-x="350" 
d="M316 332c1 -10 1 -21 0 -32c-5 -52 -32 -97 -133 -140c-52 -21 -87 -47 -107 -74c-6 -10 -11 -20 -13 -30h233l-5 -56h-295l2 22c13 83 75 147 166 183c74 29 90 63 94 94c1 8 1 15 0 22c-3 29 -22 51 -79 51c-51 0 -86 -26 -96 -85l-55 8c16 80 72 131 156 131
c78 0 125 -35 132 -94z" />
    <glyph glyph-name="uni2083" unicode="&#x2083;" horiz-adv-x="350" 
d="M307 341c1 -7 2 -14 1 -22c-5 -47 -35 -87 -96 -95c51 -3 87 -40 92 -85c1 -6 1 -13 0 -20c-7 -75 -68 -125 -164 -125c-79 0 -127 41 -147 111l52 16c10 -49 49 -78 99 -78c57 0 102 24 107 77c1 4 0 8 0 12c-4 37 -43 68 -97 68h-47l5 46h41c49 0 95 27 100 68
c1 6 1 11 0 17c-3 31 -29 48 -77 48c-46 0 -77 -23 -98 -71l-49 14c27 60 76 104 152 104c72 0 120 -33 126 -85z" />
    <glyph glyph-name="uni2084" unicode="&#x2084;" horiz-adv-x="350" 
d="M330 88h-64l-9 -88h-53l9 88h-222l4 38l251 294h52l-27 -285h64zM62 135h156l19 204z" />
    <glyph glyph-name="uni2085" unicode="&#x2085;" horiz-adv-x="350" 
d="M296 364h-196l-23 -112h3c16 15 49 30 92 30c58 0 126 -33 134 -108c1 -10 1 -20 0 -32c-9 -95 -82 -148 -167 -148c-79 0 -130 35 -148 91l54 22c9 -37 45 -59 97 -59s103 32 109 94c1 8 0 15 -1 21c-5 51 -52 72 -87 72s-82 -20 -100 -52l-48 12l42 225h244z" />
    <glyph glyph-name="uni2086" unicode="&#x2086;" horiz-adv-x="350" 
d="M254 316c-11 47 -39 61 -81 61c-55 0 -114 -67 -124 -164c15 30 56 58 114 58c60 0 125 -35 133 -102c1 -9 1 -18 0 -27c-10 -100 -78 -148 -158 -148c-70 0 -135 46 -145 142c-3 18 -3 38 0 60c14 152 96 230 182 230c65 0 110 -36 129 -86zM243 162
c-5 42 -43 63 -85 63c-43 0 -101 -31 -113 -79c0 -5 0 -9 1 -14c6 -54 50 -87 95 -87c47 0 95 32 102 98v19z" />
    <glyph glyph-name="uni2087" unicode="&#x2087;" horiz-adv-x="350" 
d="M275 371c-114 -109 -161 -246 -183 -371h-60c22 149 89 276 172 364h-225l5 56h295z" />
    <glyph glyph-name="uni2088" unicode="&#x2088;" horiz-adv-x="350" 
d="M307 338c1 -6 1 -12 1 -19c-5 -47 -36 -87 -97 -95c51 -3 87 -39 92 -84c1 -7 2 -14 0 -21c-8 -81 -63 -125 -165 -125c-82 0 -137 41 -144 100c-1 8 -1 16 0 25c6 54 55 102 112 105c-46 7 -71 38 -75 74c-1 7 -1 14 0 21c5 65 61 107 146 107c73 0 125 -36 130 -88z
M254 328c-4 33 -36 51 -79 51c-46 0 -87 -23 -91 -65c0 -4 0 -8 1 -12c3 -34 40 -56 76 -56c38 0 88 27 92 68c1 5 1 10 1 14zM250 132c-4 37 -44 68 -94 68c-59 0 -104 -38 -109 -80v-17c5 -41 43 -60 93 -60c59 0 105 24 110 77c1 4 0 8 0 12z" />
    <glyph glyph-name="uni2089" unicode="&#x2089;" horiz-adv-x="350" 
d="M311 284c2 -18 2 -38 -1 -60c-14 -152 -96 -230 -182 -230c-65 0 -109 36 -129 86l50 24c12 -47 39 -61 81 -61c55 0 114 67 124 164c-15 -30 -56 -58 -114 -58c-60 0 -125 35 -133 102c-1 9 -1 18 0 27c10 100 78 148 158 148c70 0 135 -46 146 -142zM257 288
c-6 54 -50 87 -95 87c-47 0 -95 -32 -102 -98c0 -7 0 -13 1 -19c4 -42 42 -63 84 -63c43 0 101 31 113 79c0 5 0 9 -1 14z" />
    <glyph glyph-name="uni2070" unicode="&#x2070;" horiz-adv-x="350" 
d="M315 639c3 -22 2 -45 0 -69c-13 -125 -72 -216 -171 -216c-73 0 -124 65 -134 153c-2 20 -2 41 0 63c13 123 72 216 171 216c78 0 125 -62 134 -147zM261 629c-7 60 -34 104 -83 104c-61 0 -106 -75 -115 -163c-2 -18 -2 -36 0 -53c7 -60 37 -109 84 -109
c61 0 107 81 115 162c2 21 1 41 -1 59z" />
    <glyph glyph-name="uni00B9" unicode="&#xb9;" horiz-adv-x="350" 
d="M200 360h-57l33 347l-80 -31l-12 41c50 16 83 35 106 63h51z" />
    <glyph glyph-name="uni00B2" unicode="&#xb2;" horiz-adv-x="350" 
d="M327 692c1 -10 1 -21 0 -32c-5 -52 -32 -97 -133 -140c-52 -21 -87 -47 -107 -74c-6 -10 -11 -20 -13 -30h233l-5 -56h-295l2 22c13 83 75 147 166 183c74 29 90 63 94 94c1 8 1 15 0 22c-3 29 -22 51 -79 51c-51 0 -86 -26 -96 -85l-55 8c16 80 72 131 156 131
c78 0 125 -35 132 -94z" />
    <glyph glyph-name="uni00B3" unicode="&#xb3;" horiz-adv-x="350" 
d="M321 701c1 -7 2 -14 1 -22c-5 -47 -35 -87 -96 -95c51 -3 87 -40 92 -85c1 -6 1 -13 0 -20c-7 -75 -68 -125 -164 -125c-79 0 -127 41 -147 111l52 16c10 -49 49 -78 99 -78c57 0 102 24 107 77c1 4 0 8 0 12c-4 37 -43 68 -97 68h-47l5 46h41c49 0 95 27 100 68
c1 6 1 11 0 17c-3 31 -29 48 -77 48c-46 0 -77 -23 -98 -71l-49 14c27 60 76 104 152 104c72 0 120 -33 126 -85z" />
    <glyph glyph-name="uni2074" unicode="&#x2074;" horiz-adv-x="350" 
d="M339 448h-64l-9 -88h-53l9 88h-222l4 38l251 294h52l-27 -285h64zM71 495h156l19 204z" />
    <glyph glyph-name="uni2075" unicode="&#x2075;" horiz-adv-x="350" 
d="M304 724h-196l-23 -112h3c16 15 49 30 92 30c58 0 126 -33 134 -108c1 -10 1 -20 0 -32c-9 -95 -82 -148 -167 -148c-79 0 -130 35 -148 91l54 22c9 -37 45 -59 97 -59s103 32 109 94c1 8 0 15 -1 21c-5 51 -52 72 -87 72s-83 -20 -100 -52l-48 12l42 225h244z" />
    <glyph glyph-name="uni2076" unicode="&#x2076;" horiz-adv-x="350" 
d="M266 676c-11 47 -39 61 -81 61c-55 0 -114 -67 -124 -164c15 30 56 58 114 58c60 0 125 -35 133 -102c1 -9 1 -18 0 -27c-10 -100 -78 -148 -158 -148c-70 0 -135 46 -146 142c-2 18 -2 38 1 60c14 152 96 230 182 230c65 0 110 -36 129 -86zM255 522
c-5 42 -43 63 -85 63c-43 0 -101 -31 -113 -79c0 -5 0 -9 1 -14c6 -54 50 -87 95 -87c47 0 95 32 102 98v19z" />
    <glyph glyph-name="uni2077" unicode="&#x2077;" horiz-adv-x="350" 
d="M278 731c-114 -109 -161 -246 -183 -371h-60c22 149 89 276 172 364h-225l5 56h295z" />
    <glyph glyph-name="uni2078" unicode="&#x2078;" horiz-adv-x="350" 
d="M319 698c1 -6 1 -12 1 -19c-5 -47 -36 -87 -97 -95c51 -3 87 -39 92 -84c1 -7 2 -14 0 -21c-8 -81 -63 -125 -165 -125c-82 0 -137 41 -144 100c-1 8 -1 16 0 25c6 54 55 102 112 105c-46 7 -71 38 -75 74c-1 7 -1 14 0 21c5 65 61 107 146 107c73 0 125 -36 130 -88z
M266 688c-4 33 -36 51 -79 51c-46 0 -87 -23 -91 -65c0 -4 0 -8 1 -12c3 -34 40 -56 76 -56c38 0 88 27 92 68c1 5 1 10 1 14zM262 492c-4 37 -44 68 -94 68c-59 0 -104 -38 -109 -80v-17c5 -41 43 -60 93 -60c59 0 105 24 110 77c1 4 0 8 0 12z" />
    <glyph glyph-name="uni2079" unicode="&#x2079;" horiz-adv-x="350" 
d="M324 644c2 -18 2 -38 -1 -60c-14 -152 -96 -230 -182 -230c-65 0 -109 36 -129 86l50 24c11 -47 39 -61 81 -61c55 0 114 67 124 164c-15 -30 -56 -58 -114 -58c-60 0 -125 35 -133 102c-1 9 -1 18 0 27c10 100 78 148 158 148c70 0 135 -46 146 -142zM270 648
c-6 54 -50 87 -95 87c-47 0 -95 -32 -102 -98c0 -7 0 -13 1 -19c4 -42 42 -63 84 -63c43 0 101 31 113 79c0 5 0 9 -1 14z" />
    <glyph glyph-name="fraction" unicode="&#x2044;" horiz-adv-x="262" 
d="M-131 -26h-50l541 829h50z" />
    <glyph glyph-name="onehalf" unicode="&#xbd;" horiz-adv-x="731" 
d="M56 -26h-50l541 829h50zM169 360h-57l33 347l-80 -31l-12 41c50 16 83 35 106 63h51zM662 331c1 -10 2 -20 1 -31c-5 -52 -33 -97 -134 -140c-69 -29 -110 -65 -119 -104h233l-6 -56h-295l3 22c12 83 75 147 166 183c74 29 90 63 94 94c1 7 0 15 0 21
c-4 30 -22 52 -80 52c-51 0 -85 -26 -96 -85l-54 8c16 80 72 131 156 131c78 0 125 -36 131 -95z" />
    <glyph glyph-name="uni2153" unicode="&#x2153;" horiz-adv-x="731" 
d="M56 -26h-50l541 829h50zM169 360h-57l33 347l-80 -31l-12 41c50 16 83 35 106 63h51zM653 341c1 -7 2 -14 1 -22c-5 -47 -35 -87 -96 -95c51 -3 87 -40 92 -85c1 -6 1 -13 0 -20c-7 -75 -68 -125 -164 -125c-79 0 -127 41 -147 111l52 16c10 -49 49 -78 99 -78
c57 0 102 24 107 77c1 4 0 8 0 12c-4 37 -43 68 -97 68h-47l5 46h41c49 0 95 27 100 68c1 6 1 11 0 17c-3 31 -29 48 -77 48c-46 0 -77 -23 -98 -71l-49 14c27 60 76 104 152 104c72 0 120 -33 126 -85z" />
    <glyph glyph-name="uni2154" unicode="&#x2154;" horiz-adv-x="731" 
d="M109 -26h-50l541 829h50zM307 692c1 -10 1 -21 0 -32c-5 -52 -32 -97 -133 -140c-52 -21 -87 -47 -107 -74c-6 -10 -11 -20 -13 -30h233l-5 -56h-295l2 22c13 83 75 147 166 183c74 29 90 63 94 94c1 8 1 15 0 22c-3 29 -22 51 -79 51c-51 0 -86 -26 -96 -85l-55 8
c16 80 72 131 156 131c78 0 125 -35 132 -94zM662 341c1 -7 2 -14 1 -22c-5 -47 -35 -87 -96 -95c51 -3 87 -40 92 -85c1 -6 1 -13 0 -20c-7 -75 -68 -125 -164 -125c-79 0 -127 41 -147 111l52 16c10 -49 49 -78 99 -78c57 0 102 24 107 77c1 4 0 8 0 12
c-4 37 -43 68 -97 68h-47l5 46h41c49 0 95 27 100 68c1 6 1 11 0 17c-3 31 -29 48 -77 48c-46 0 -77 -23 -98 -71l-49 14c27 60 76 104 152 104c72 0 120 -33 126 -85z" />
    <glyph glyph-name="onequarter" unicode="&#xbc;" horiz-adv-x="731" 
d="M84 -26h-50l541 829h50zM174 360h-57l33 347l-80 -31l-12 41c50 16 83 35 106 63h51zM657 88h-64l-9 -88h-53l9 88h-222l4 38l251 294h52l-27 -285h64zM389 135h156l19 204z" />
    <glyph glyph-name="threequarters" unicode="&#xbe;" horiz-adv-x="731" 
d="M109 -26h-50l541 829h50zM321 701c1 -7 2 -14 1 -22c-5 -47 -35 -87 -96 -95c51 -3 87 -40 92 -85c1 -6 1 -13 0 -20c-7 -75 -68 -125 -164 -125c-79 0 -127 41 -147 111l52 16c10 -49 49 -78 99 -78c57 0 102 24 107 77c1 4 0 8 0 12c-4 37 -43 68 -97 68h-47l5 46h41
c49 0 95 27 100 68c1 6 1 11 0 17c-3 31 -29 48 -77 48c-46 0 -77 -23 -98 -71l-49 14c27 60 76 104 152 104c72 0 120 -33 126 -85zM657 88h-64l-9 -88h-53l9 88h-222l4 38l251 294h52l-27 -285h64zM389 135h156l19 204z" />
    <glyph glyph-name="oneeighth" unicode="&#x215b;" horiz-adv-x="731" 
d="M56 -26h-50l541 829h50zM169 360h-57l33 347l-80 -31l-12 41c50 16 83 35 106 63h51zM660 338c1 -6 1 -12 1 -19c-5 -47 -36 -87 -97 -95c51 -3 87 -39 92 -84c1 -7 2 -14 0 -21c-8 -81 -63 -125 -165 -125c-82 0 -137 41 -144 100c-1 8 -1 16 0 25c6 54 55 102 112 105
c-46 7 -71 38 -75 74c-1 7 -1 14 0 21c5 65 61 107 146 107c73 0 125 -36 130 -88zM607 328c-4 33 -36 51 -79 51c-46 0 -87 -23 -91 -65c0 -4 0 -8 1 -12c3 -34 40 -56 76 -56c38 0 88 27 92 68c1 5 1 10 1 14zM603 132c-4 37 -44 68 -94 68c-59 0 -104 -38 -109 -80v-17
c5 -41 43 -60 93 -60c59 0 105 24 110 77c1 4 0 8 0 12z" />
    <glyph glyph-name="threeeighths" unicode="&#x215c;" horiz-adv-x="731" 
d="M99 -26h-50l541 829h50zM306 701c1 -7 2 -14 1 -22c-5 -47 -35 -87 -96 -95c51 -3 87 -40 92 -85c1 -6 1 -13 0 -20c-7 -75 -68 -125 -164 -125c-79 0 -127 41 -147 111l52 16c10 -49 49 -78 99 -78c57 0 102 24 107 77c1 4 0 8 0 12c-4 37 -43 68 -97 68h-47l5 46h41
c49 0 95 27 100 68c1 6 1 11 0 17c-3 31 -29 48 -77 48c-46 0 -77 -23 -98 -71l-49 14c27 60 76 104 152 104c72 0 120 -33 126 -85zM660 338c1 -6 1 -12 1 -19c-5 -47 -36 -87 -97 -95c51 -3 87 -39 92 -84c1 -7 2 -14 0 -21c-8 -81 -63 -125 -165 -125
c-82 0 -137 41 -144 100c-1 8 -1 16 0 25c6 54 55 102 112 105c-46 7 -71 38 -75 74c-1 7 -1 14 0 21c5 65 61 107 146 107c73 0 125 -36 130 -88zM607 328c-4 33 -36 51 -79 51c-46 0 -87 -23 -91 -65c0 -4 0 -8 1 -12c3 -34 40 -56 76 -56c38 0 88 27 92 68c1 5 1 10 1 14
zM603 132c-4 37 -44 68 -94 68c-59 0 -104 -38 -109 -80v-17c5 -41 43 -60 93 -60c59 0 105 24 110 77c1 4 0 8 0 12z" />
    <glyph glyph-name="fiveeighths" unicode="&#x215d;" horiz-adv-x="731" 
d="M94 -26h-50l541 829h50zM294 724h-196l-23 -112h3c16 15 49 30 92 30c58 0 126 -33 134 -108c1 -10 1 -20 0 -32c-9 -95 -82 -148 -167 -148c-79 0 -130 35 -148 91l54 22c9 -37 45 -59 97 -59s103 32 109 94c1 8 0 15 -1 21c-5 51 -52 72 -87 72s-83 -20 -100 -52
l-48 12l42 225h244zM660 338c1 -6 1 -12 1 -19c-5 -47 -36 -87 -97 -95c51 -3 87 -39 92 -84c1 -7 2 -14 0 -21c-8 -81 -63 -125 -165 -125c-82 0 -137 41 -144 100c-1 8 -1 16 0 25c6 54 55 102 112 105c-46 7 -71 38 -75 74c-1 7 -1 14 0 21c5 65 61 107 146 107
c73 0 125 -36 130 -88zM607 328c-4 33 -36 51 -79 51c-46 0 -87 -23 -91 -65c0 -4 0 -8 1 -12c3 -34 40 -56 76 -56c38 0 88 27 92 68c1 5 1 10 1 14zM603 132c-4 37 -44 68 -94 68c-59 0 -104 -38 -109 -80v-17c5 -41 43 -60 93 -60c59 0 105 24 110 77c1 4 0 8 0 12z" />
    <glyph glyph-name="seveneighths" unicode="&#x215e;" horiz-adv-x="731" 
d="M56 -26h-50l541 829h50zM298 731c-114 -109 -161 -246 -183 -371h-60c22 149 89 276 172 364h-225l5 56h295zM660 338c1 -6 1 -12 1 -19c-5 -47 -36 -87 -97 -95c51 -3 87 -39 92 -84c1 -7 2 -14 0 -21c-8 -81 -63 -125 -165 -125c-82 0 -137 41 -144 100
c-1 8 -1 16 0 25c6 54 55 102 112 105c-46 7 -71 38 -75 74c-1 7 -1 14 0 21c5 65 61 107 146 107c73 0 125 -36 130 -88zM607 328c-4 33 -36 51 -79 51c-46 0 -87 -23 -91 -65c0 -4 0 -8 1 -12c3 -34 40 -56 76 -56c38 0 88 27 92 68c1 5 1 10 1 14zM603 132
c-4 37 -44 68 -94 68c-59 0 -104 -38 -109 -80v-17c5 -41 43 -60 93 -60c59 0 105 24 110 77c1 4 0 8 0 12z" />
    <glyph glyph-name="asterisk" unicode="*" horiz-adv-x="500" 
d="M475 558l-166 -6l65 -151l-48 -31l-75 152l-109 -150l-42 31l97 150l-170 5l5 53l171 7l-69 152l49 30l79 -151l104 151l46 -28l-96 -156l164 -5z" />
    <glyph glyph-name="backslash" unicode="\" horiz-adv-x="400" 
d="M277 -23l-246 826h60l246 -826h-60z" />
    <glyph glyph-name="periodcentered" unicode="&#xb7;" horiz-adv-x="345" 
d="M183 200h-91l11 114h91z" />
    <glyph glyph-name="bullet" unicode="&#x2022;" horiz-adv-x="392" 
d="M263 306c7 -56 -34 -102 -90 -102s-107 46 -114 102c-6 56 35 102 91 102s107 -46 113 -102z" />
    <glyph glyph-name="colon" unicode=":" horiz-adv-x="400" 
d="M233 439h-90l11 112h90zM190 0h-90l11 112h90z" />
    <glyph glyph-name="comma" unicode="," horiz-adv-x="345" 
d="M164 5c-5 -56 -30 -103 -72 -131l-27 32c31 18 52 53 56 94h-48l12 116h91z" />
    <glyph glyph-name="ellipsis" unicode="&#x2026;" horiz-adv-x="1000" 
d="M177 71c0 -4 1 -8 0 -12c-3 -33 -33 -60 -66 -60c-29 0 -50 20 -53 47c-1 5 -1 9 -1 13c4 33 32 60 65 60c29 0 52 -21 55 -48zM511 71c0 -4 1 -8 0 -12c-3 -33 -33 -60 -66 -60c-29 0 -50 20 -53 47c-1 5 -1 9 -1 13c4 33 32 60 65 60c29 0 52 -21 55 -48zM845 71
c0 -4 1 -8 0 -12c-3 -33 -33 -60 -66 -60c-29 0 -50 20 -53 47c-1 5 -1 9 -1 13c4 33 32 60 65 60c29 0 52 -21 55 -48z" />
    <glyph glyph-name="exclam" unicode="!" horiz-adv-x="400" 
d="M196 212h-61l44 568h85zM184 0h-79l11 109h79z" />
    <glyph glyph-name="exclamdown" unicode="&#xa1;" horiz-adv-x="400" 
d="M244 482h-79l11 109h79zM182 -189h-85l67 568h61z" />
    <glyph glyph-name="numbersign" unicode="#" 
d="M654 514h-155l-64 -220h143l-6 -64h-158l-69 -230h-60l70 230h-176l-69 -230h-60l71 230h-127l6 64h139l67 220h-128l7 64h142l62 202h57l-60 -202h176l62 202h58l-62 -202h141zM265 514l-66 -220h176l66 220h-176z" />
    <glyph glyph-name="uni203E" unicode="&#x203e;" horiz-adv-x="500" 
d="M524 793h-500l4 54h500z" />
    <glyph glyph-name="period" unicode="." horiz-adv-x="345" 
d="M164 0h-91l11 114h91z" />
    <glyph glyph-name="question" unicode="?" 
d="M594 633c1 -11 1 -22 0 -34c-10 -99 -57 -153 -132 -203c-64 -45 -112 -70 -118 -155c-1 -11 -4 -38 -3 -53h-72l4 56c11 101 70 147 137 189c59 39 104 88 111 159c1 9 0 18 0 26c-8 70 -78 115 -160 115c-95 0 -176 -64 -193 -159l-69 12c24 127 141 210 275 210
c119 0 210 -72 220 -163zM326 0h-79l11 109h79z" />
    <glyph glyph-name="questiondown" unicode="&#xbf;" 
d="M397 495h-79l10 109h79zM556 18c-24 -127 -142 -210 -276 -210c-119 0 -209 72 -220 163c-1 11 -1 22 0 34c10 99 57 153 132 203c65 45 112 70 119 155c0 11 3 38 3 53h72c0 -17 -3 -45 -5 -56c-11 -101 -70 -147 -136 -189c-60 -39 -104 -88 -111 -159
c-1 -9 -1 -18 0 -26c8 -70 77 -115 159 -115c95 0 176 64 194 159z" />
    <glyph glyph-name="quotedbl" unicode="&#x22;" horiz-adv-x="500" 
d="M170 510h-50l15 270h78zM362 510h-50l16 270h79z" />
    <glyph glyph-name="quotesingle" unicode="'" horiz-adv-x="345" 
d="M189 509h-57l16 270h84z" />
    <glyph glyph-name="semicolon" unicode=";" horiz-adv-x="400" 
d="M233 438h-90l11 113h90zM190 5c-5 -56 -30 -103 -72 -131l-27 32c31 18 52 53 56 94h-47l11 114h90z" />
    <glyph glyph-name="slash" unicode="/" horiz-adv-x="400" 
d="M5 -23h-60l410 826h60z" />
    <glyph glyph-name="underscore" unicode="_" horiz-adv-x="500" 
d="M429 -160h-500l5 54h500z" />
    <glyph glyph-name="braceleft" unicode="{" horiz-adv-x="400" 
d="M341 781c-64 0 -95 -31 -96 -98c1 -5 0 -9 1 -14c3 -49 10 -155 5 -218c-7 -70 -42 -101 -77 -111c27 -6 50 -29 54 -72c2 -12 2 -24 1 -38c-7 -63 -35 -169 -47 -218c-7 -23 -9 -42 -7 -57c4 -38 31 -55 79 -55h43l-17 -57h-39c-65 0 -126 27 -134 95c-2 19 -1 41 7 66
c16 60 43 166 48 217c1 12 1 23 0 32c-4 37 -25 56 -59 56h-23l6 63h23c43 0 72 31 77 87c5 52 -2 158 -6 217c-8 118 76 162 159 162h39l6 -57h-43z" />
    <glyph glyph-name="braceright" unicode="}" horiz-adv-x="400" 
d="M250 742c3 -19 1 -41 -6 -66c-16 -59 -43 -165 -48 -217c-2 -12 -2 -22 -1 -32c4 -36 26 -55 60 -55h23l-6 -63h-23c-43 0 -73 -31 -77 -88c-5 -51 2 -157 6 -217c8 -117 -76 -161 -159 -161h-39l-7 57h43c64 0 96 31 96 98v14c-4 49 -12 155 -5 218c6 68 41 102 75 110
c-26 8 -49 29 -54 72c-1 11 -1 24 1 39c5 63 34 169 47 218c6 23 8 42 6 57c-4 38 -31 55 -79 55h-43l18 57h39c65 0 126 -27 133 -96z" />
    <glyph glyph-name="bracketleft" unicode="[" horiz-adv-x="400" 
d="M398 770h-177l-85 -859h177l-6 -61h-242l96 980h242z" />
    <glyph glyph-name="bracketright" unicode="]" horiz-adv-x="400" 
d="M196 -150h-243l6 61h179l85 859h-179l5 60h243z" />
    <glyph glyph-name="parenleft" unicode="(" horiz-adv-x="400" 
d="M399 803c-134 -105 -232 -247 -254 -464c-5 -54 -5 -103 0 -147c17 -144 83 -241 163 -311l-49 -43c-108 98 -164 205 -179 337c-6 51 -6 105 0 164c21 209 102 367 278 503z" />
    <glyph glyph-name="parenright" unicode=")" horiz-adv-x="400" 
d="M277 503c6 -51 5 -106 -1 -164c-20 -208 -101 -365 -277 -501l-39 43c121 92 228 229 251 458c5 53 5 102 0 146c-16 138 -76 239 -160 318l47 39c108 -98 164 -208 179 -339z" />
    <glyph glyph-name="emdash" unicode="&#x2014;" horiz-adv-x="1000" 
d="M968 236h-1000l6 49h1000z" />
    <glyph glyph-name="endash" unicode="&#x2013;" horiz-adv-x="500" 
d="M468 233h-500l5 54h500z" />
    <glyph glyph-name="hyphen" unicode="-" horiz-adv-x="450" 
d="M357 233h-329l6 65h329z" />
    <glyph glyph-name="guillemotleft" unicode="&#xab;" horiz-adv-x="640" 
d="M337 457l-243 -202l203 -202l-7 -76l-252 247l6 62l300 246zM561 457l-243 -202l203 -202l-7 -76l-252 247l6 62l300 246z" />
    <glyph glyph-name="guillemotright" unicode="&#xbb;" horiz-adv-x="640" 
d="M320 224l-300 -247l7 76l243 202l-203 202l7 75l252 -246zM544 224l-300 -247l7 76l243 202l-203 202l7 75l252 -246z" />
    <glyph glyph-name="guilsinglleft" unicode="&#x2039;" horiz-adv-x="640" 
d="M463 457l-283 -202l243 -202l-7 -76l-292 247l6 62l340 246z" />
    <glyph glyph-name="guilsinglright" unicode="&#x203a;" horiz-adv-x="640" 
d="M450 224l-340 -247l7 76l283 202l-243 202l7 75l292 -246z" />
    <glyph glyph-name="quotedblbase" unicode="&#x201e;" horiz-adv-x="345" 
d="M74 3c-5 -52 -33 -103 -78 -132l-22 32c32 19 51 54 55 97h-40l12 116h84zM249 3c-6 -51 -33 -103 -78 -132l-22 32c30 19 50 44 55 97h-40l12 116h84z" />
    <glyph glyph-name="quotedblleft" unicode="&#x201c;" horiz-adv-x="345" 
d="M155 779c-29 -15 -50 -52 -55 -96h40l-11 -116h-84l11 112c6 59 30 100 78 133zM330 779c-29 -15 -50 -52 -55 -96h40l-11 -116h-84l11 112c6 59 30 100 78 133z" />
    <glyph glyph-name="quotedblright" unicode="&#x201d;" horiz-adv-x="345" 
d="M141 687c-5 -52 -33 -103 -78 -132l-21 32c32 19 50 55 54 97h-40l12 116h84zM316 687c-5 -52 -33 -103 -78 -132l-21 32c30 20 49 43 54 97h-40l12 116h84z" />
    <glyph glyph-name="quoteleft" unicode="&#x2018;" horiz-adv-x="345" 
d="M300 779c-30 -18 -50 -51 -55 -95h43l-11 -116h-93l12 112c5 59 34 105 76 133z" />
    <glyph glyph-name="quoteright" unicode="&#x2019;" horiz-adv-x="345" 
d="M176 687c-6 -58 -32 -105 -75 -132l-30 34c30 18 50 51 54 95h-43l12 116h93z" />
    <glyph glyph-name="quotesinglbase" unicode="&#x201a;" horiz-adv-x="345" 
d="M109 3c-7 -58 -33 -105 -75 -132l-30 34c30 18 50 51 54 95h-43l12 116h93z" />
    <glyph glyph-name="space" unicode=" " horiz-adv-x="345" 
 />
    <glyph glyph-name="cent" unicode="&#xa2;" horiz-adv-x="562" 
d="M479 412c-19 37 -49 62 -85 76l-170 -433c16 -4 32 -6 49 -6c67 0 139 29 182 90l24 -57c-55 -62 -127 -93 -217 -93c-21 0 -42 2 -62 7l-40 -103l-47 16l40 101c-71 30 -123 93 -134 188c-2 24 -2 50 1 78c18 188 152 286 298 286c18 0 35 -1 50 -4l40 99l48 -13
l-39 -98c40 -14 73 -39 97 -74zM346 500c-8 1 -18 2 -27 2c-97 0 -214 -68 -229 -226c-3 -22 -3 -43 0 -62c7 -69 43 -115 88 -141z" />
    <glyph glyph-name="currency" unicode="&#xa4;" horiz-adv-x="567" 
d="M479 89l-79 71c-35 -30 -77 -45 -128 -45c-50 0 -96 15 -138 45l-63 -71l-42 38l62 71c-34 38 -54 82 -60 133c-5 50 5 93 30 132l-79 72l34 38l79 -72c35 30 77 45 128 46c50 0 95 -15 137 -46l64 72l42 -38l-64 -72c35 -38 54 -81 61 -132c6 -50 -4 -94 -31 -132
l81 -72zM402 331c-10 86 -86 155 -172 155s-148 -69 -138 -155s87 -155 173 -155s147 69 137 155z" />
    <glyph glyph-name="dollar" unicode="$" 
d="M535 589c-20 79 -73 117 -150 125l-28 -277l38 -12c105 -36 171 -85 181 -169c1 -14 1 -29 0 -45c-11 -119 -111 -198 -262 -204l-8 -88h-51l8 88c-119 11 -201 85 -224 188l56 34c18 -81 88 -147 175 -160l31 316l-45 15c-97 33 -147 74 -155 142c-1 13 -1 27 0 42
c11 102 110 183 239 191l5 64h51l-6 -66c107 -7 179 -50 202 -145zM333 716c-85 -6 -158 -63 -165 -129c-1 -8 -1 -16 0 -24c5 -46 44 -77 118 -103l21 -7zM506 236c-7 60 -56 95 -133 125l-23 7l-30 -301c100 5 178 62 187 139c0 11 0 21 -1 30z" />
    <glyph glyph-name="Euro" unicode="&#x20ac;" horiz-adv-x="709" 
d="M616 600c-31 80 -104 131 -204 131c-129 0 -244 -101 -285 -258h374l-5 -50h-379c-2 -9 -3 -19 -4 -28l-3 -30h322l-4 -50h-318c0 -11 2 -21 3 -31c18 -160 120 -233 235 -233c97 0 189 51 237 133l43 -50c-54 -88 -155 -150 -289 -150c-169 0 -281 103 -301 283
c-2 15 -3 31 -4 48h-67l4 50h63l3 30c1 9 2 19 4 28h-66l5 50h70c46 194 185 323 365 323c136 0 220 -63 255 -147z" />
    <glyph glyph-name="florin" unicode="&#x192;" horiz-adv-x="500" 
d="M484 663c-11 15 -31 20 -50 20c-54 0 -76 -46 -97 -119l-29 -99h124l-5 -57h-131c-14 -56 -63 -242 -87 -329c-31 -107 -71 -219 -119 -247c-26 -15 -54 -25 -85 -25c-20 0 -41 4 -65 14l17 68c22 -11 39 -17 55 -17c14 0 26 5 41 14c25 16 49 96 68 159
c35 123 72 283 94 363h-110l5 57h119c13 53 31 117 65 186c28 55 76 99 146 99c27 0 48 -6 68 -17z" />
    <glyph glyph-name="sterling" unicode="&#xa3;" horiz-adv-x="687" 
d="M609 637c2 -15 2 -31 1 -47l-60 -17c0 14 0 26 -2 38c-9 86 -72 125 -156 125c-112 0 -179 -90 -168 -183c1 -8 3 -15 5 -23c10 -43 21 -86 31 -127h242l-5 -51h-230c0 -3 1 -6 1 -8c13 -113 -54 -217 -167 -279c42 15 91 25 135 25c23 0 45 -3 65 -9
c41 -14 79 -35 128 -35c40 0 89 15 155 61l28 -50c-73 -53 -133 -69 -182 -69c-61 0 -107 24 -151 38c-20 6 -41 9 -64 9c-60 0 -126 -19 -171 -39l-33 59c129 67 209 171 195 293v4h-168l5 51h155c-10 39 -23 80 -33 125c-2 7 -3 14 -4 22c-13 121 81 245 238 245
c114 0 199 -55 210 -158z" />
    <glyph glyph-name="yen" unicode="&#xa5;" 
d="M399 408h204l-6 -55h-235l-13 -138h235l-6 -55h-235l-16 -160h-75l16 160h-233l6 55h233l13 138h-233l6 55h202l-188 372h74l178 -363l252 363h81z" />
    <glyph glyph-name="plus" unicode="+" 
d="M349 251l29 -251h-67l-29 251h-246l-7 65h246l-27 235h67l27 -235h253l7 -65h-253z" />
    <glyph glyph-name="minus" unicode="&#x2212;" horiz-adv-x="500" 
d="M23 236l-5 49h400l5 -49h-400z" />
    <glyph glyph-name="multiply" unicode="&#xd7;" horiz-adv-x="660" 
d="M339 281l253 -228l-37 -42l-253 227l-201 -227l-47 42l201 227l-254 229l37 42l254 -229l202 229l47 -42z" />
    <glyph glyph-name="divide" unicode="&#xf7;" horiz-adv-x="660" 
d="M331 510c4 -33 -19 -59 -52 -59s-62 26 -66 59s19 59 52 59s62 -26 66 -59zM22 265l-7 59h555l7 -59h-555zM381 72c3 -32 -20 -59 -52 -59s-63 27 -66 59c-4 32 20 59 52 59s62 -27 66 -59z" />
    <glyph glyph-name="equal" unicode="=" 
d="M28 358l-7 63h552l7 -63h-552zM51 157l-7 62h552l7 -62h-552z" />
    <glyph glyph-name="greater" unicode="&#x3e;" 
d="M138 -23l-9 76l351 222l-402 222l-8 75l476 -266l7 -62z" />
    <glyph glyph-name="less" unicode="&#x3c;" 
d="M83 244l-7 62l415 266l8 -75l-349 -222l400 -222l9 -76z" />
    <glyph glyph-name="plusminus" unicode="&#xb1;" horiz-adv-x="660" 
d="M325 318l22 -192h-64l-22 192h-235l-7 61h235l-22 192h64l22 -192h236l7 -61h-236zM60 18l-7 59h535l7 -59h-535z" />
    <glyph glyph-name="asciitilde" unicode="~" 
d="M579 307c-12 -16 -90 -64 -159 -64c-78 0 -130 62 -194 62c-62 0 -122 -30 -165 -66l7 71c31 26 100 61 165 61c76 0 127 -62 194 -62s128 38 159 67z" />
    <glyph glyph-name="logicalnot" unicode="&#xac;" horiz-adv-x="562" 
d="M429 106l-24 208h-411l-6 58h469l30 -266h-58z" />
    <glyph glyph-name="percent" unicode="%" horiz-adv-x="1000" 
d="M415 651c2 -18 2 -37 0 -56c-9 -100 -75 -199 -187 -199c-92 0 -140 67 -149 145c-2 18 -2 36 0 54c11 102 79 201 188 201c91 0 139 -65 148 -145zM193 0h-68l647 780h68zM353 645c-8 65 -47 94 -91 94c-52 0 -109 -44 -120 -144c-1 -16 -1 -30 0 -43
c7 -62 43 -98 91 -98c57 0 111 50 119 141c2 19 2 35 1 50zM887 241c2 -18 2 -37 0 -56c-10 -101 -75 -200 -188 -200c-91 0 -139 67 -148 145c-2 18 -2 37 0 55c10 101 79 200 187 200c92 0 140 -66 149 -144zM823 234c-7 65 -45 95 -90 95c-51 0 -109 -45 -119 -144
c-1 -16 -2 -30 0 -44c7 -61 43 -97 90 -97c58 0 110 50 119 141c2 18 2 35 0 49z" />
    <glyph glyph-name="perthousand" unicode="&#x2030;" horiz-adv-x="1000" 
d="M329 673c3 -21 3 -43 1 -66c-9 -96 -61 -186 -152 -186c-71 0 -106 52 -114 120c-2 21 -2 43 1 66c9 100 57 188 150 188c72 0 106 -53 114 -122zM55 0h-59l594 780h58zM274 672c-5 52 -30 72 -64 72c-42 0 -81 -36 -90 -137c-3 -23 -2 -43 0 -60c5 -49 28 -73 64 -73
c49 0 80 41 90 133c2 26 2 47 0 65zM587 239c2 -21 2 -43 -1 -66c-9 -99 -57 -187 -150 -187c-72 0 -106 53 -114 122c-3 20 -3 42 -1 65c10 98 62 187 152 187c71 0 106 -52 114 -121zM909 238c2 -20 3 -42 0 -65c-9 -99 -58 -187 -151 -187c-72 0 -106 52 -114 120
c-2 21 -2 44 0 67c10 98 61 187 151 187c72 0 106 -53 114 -122zM532 236c-6 53 -30 73 -64 73c-43 0 -81 -36 -91 -136c-2 -24 -2 -44 0 -61c6 -49 28 -73 64 -73c49 0 81 41 90 134c2 25 3 46 1 63zM854 236c-6 53 -30 73 -64 73c-43 0 -82 -36 -92 -136
c-2 -23 -2 -43 0 -60c6 -50 29 -74 65 -74c48 0 81 41 90 134c2 25 3 46 1 63z" />
    <glyph glyph-name="at" unicode="@" horiz-adv-x="866" 
d="M786 444c14 -121 -11 -266 -165 -266c-46 0 -83 13 -115 55c-26 -40 -69 -61 -124 -61c-119 0 -184 87 -195 188c-17 150 50 263 174 263c65 0 115 -30 138 -79l7 60l70 -14s-28 -208 -30 -240c-1 -16 0 -30 1 -42c6 -53 34 -72 71 -74h5c67 0 128 57 111 208
c-19 163 -138 305 -355 305c-200 0 -335 -149 -311 -359c25 -219 196 -352 384 -352c145 0 250 52 310 131l31 -41c-72 -99 -183 -138 -337 -138c-238 0 -416 159 -443 400c-27 234 121 408 360 408c245 0 390 -150 413 -352zM489 457c-8 70 -56 110 -120 110
c-63 0 -133 -57 -116 -205c11 -95 75 -130 127 -130c71 0 87 38 93 69c4 26 14 117 16 156z" />
    <glyph glyph-name="ampersand" unicode="&#x26;" horiz-adv-x="710" 
d="M619 -15c-46 29 -112 77 -147 110c-49 -58 -123 -111 -234 -111c-142 0 -218 69 -230 170c-1 17 -2 35 0 54c9 88 73 169 170 225c-36 53 -69 106 -76 162c-1 11 -1 23 0 35c9 92 88 166 193 166c91 0 145 -49 153 -122c2 -13 2 -27 1 -41c-9 -89 -65 -159 -183 -218
c42 -57 118 -144 202 -229c40 67 58 155 65 215l55 -20c-12 -96 -34 -167 -77 -235c41 -38 110 -87 158 -115zM387 659c-6 49 -41 81 -96 81c-65 0 -122 -48 -128 -110c-1 -9 -1 -17 0 -26c6 -47 37 -93 71 -142c102 52 146 98 153 170c1 10 1 19 0 27zM427 137
c-89 90 -167 182 -219 250c-78 -44 -130 -107 -137 -177c-1 -13 -1 -25 0 -37c9 -74 67 -129 174 -129c81 0 139 40 182 93z" />
    <glyph glyph-name="paragraph" unicode="&#xb6;" horiz-adv-x="602" 
d="M460 -131h-66l85 860h-130l-85 -860h-67l52 520c-63 3 -180 38 -193 156c-2 14 -2 29 0 46c13 132 108 205 238 205h257z" />
    <glyph glyph-name="section" unicode="&#xa7;" horiz-adv-x="612" 
d="M460 654c-9 77 -59 115 -136 115c-84 0 -137 -42 -142 -87c-1 -8 -1 -16 0 -24c4 -34 28 -56 95 -80l95 -33c100 -35 154 -68 162 -139c1 -13 1 -28 0 -44c-7 -77 -61 -131 -168 -140c63 -22 97 -63 103 -113c1 -10 0 -21 -1 -32c-9 -97 -81 -152 -219 -152
c-109 0 -186 50 -209 160l63 21c12 -79 65 -123 151 -123c95 0 143 33 150 95c1 8 0 15 0 22c-5 41 -36 69 -101 92l-96 34c-120 43 -171 83 -162 183c6 58 41 99 99 122c18 7 38 12 61 16c-55 25 -83 58 -88 102c-1 10 0 21 0 32c8 81 89 144 213 144
c107 0 179 -49 190 -153zM470 390c-6 45 -37 73 -122 103l-56 20c-115 0 -175 -44 -182 -103c0 -11 0 -21 1 -30c5 -44 36 -70 120 -101l51 -18c120 0 181 34 188 99c1 11 1 21 0 30z" />
    <glyph glyph-name="copyright" unicode="&#xa9;" horiz-adv-x="777" 
d="M705 357c23 -197 -120 -357 -317 -357s-375 160 -398 357c-22 197 120 357 317 357s376 -160 398 -357zM664 357c-19 174 -178 316 -352 316s-299 -142 -280 -316c20 -174 178 -316 352 -316s300 142 280 316zM532 220c-22 -54 -64 -97 -149 -97c-115 0 -206 83 -224 235
c-15 133 52 228 169 229h3c73 0 131 -41 164 -93l-35 -38c-28 46 -75 77 -124 77c-74 0 -131 -68 -119 -175c13 -109 76 -180 161 -180c43 0 91 22 111 82z" />
    <glyph glyph-name="registered" unicode="&#xae;" horiz-adv-x="777" 
d="M705 357c23 -197 -120 -357 -317 -357s-375 160 -398 357c-22 197 120 357 317 357s376 -160 398 -357zM664 357c-19 174 -178 316 -352 316s-299 -142 -280 -316c20 -174 178 -316 352 -316s300 142 280 316zM506 138l-127 185h-111l21 -185h-56l-50 445h162
c82 0 149 -44 158 -126c7 -64 -17 -104 -66 -125l133 -194h-64zM444 456c-6 49 -52 74 -99 74h-100l17 -156h101c50 0 88 22 81 82z" />
    <glyph glyph-name="trademark" unicode="&#x2122;" horiz-adv-x="779" 
d="M123 727l41 -357h-58l-41 357h-122l-6 53h303l6 -53h-123zM639 370l-31 270c-1 11 -4 33 -2 55l-83 -325h-51l-157 325c4 -20 8 -43 9 -56l31 -269h-54l-47 410h71l153 -311c2 -7 8 -19 11 -34c2 14 3 25 5 35l82 310h71l47 -410h-55z" />
    <glyph glyph-name="degree" unicode="&#xb0;" horiz-adv-x="310" 
d="M205 654c8 -67 -40 -125 -110 -125c-67 0 -131 54 -140 125c-7 67 40 125 111 125c68 0 132 -56 139 -125zM169 655c-5 47 -48 88 -99 88c-47 0 -84 -37 -79 -88c6 -49 49 -90 100 -90c47 0 83 36 78 90z" />
    <glyph glyph-name="bar" unicode="|" horiz-adv-x="345" 
d="M144 -23l-94 826h61l94 -826h-61z" />
    <glyph glyph-name="brokenbar" unicode="&#xa6;" horiz-adv-x="345" 
d="M87 477l-37 326h61l37 -326h-61zM144 -23l-38 326h61l38 -326h-61z" />
    <glyph glyph-name="dagger" unicode="&#x2020;" horiz-adv-x="573" 
d="M520 527h-203l-59 -602h-66l59 602h-204l6 66h204l23 232h66l-23 -232h203z" />
    <glyph glyph-name="daggerdbl" unicode="&#x2021;" horiz-adv-x="573" 
d="M522 562h-203l-36 -374h203l-7 -65h-203l-19 -198h-66l19 198h-204l7 65h204l36 374h-204l7 65h204l19 198h66l-19 -198h203z" />
    <glyph glyph-name="asciicircum" unicode="^" 
d="M501 311l-141 394l-220 -394l-53 32l233 436h94l147 -436z" />
    <glyph glyph-name="minute" unicode="&#x2032;" horiz-adv-x="270" 
d="M67 550h-50l17 270h79z" />
    <glyph glyph-name="second" unicode="&#x2033;" horiz-adv-x="384" 
d="M28 550h-50l16 270h78zM220 550h-50l17 270h79z" />
    <glyph glyph-name="uni0308" unicode="&#x308;" horiz-adv-x="0" 
d="M-297 678h-71l10 102h71zM-109 678h-71l10 102h71z" />
    <glyph glyph-name="acutecomb" unicode="&#x301;" horiz-adv-x="0" 
d="M-318 634l-16 44l155 116l46 -55z" />
    <glyph glyph-name="uni0306" unicode="&#x306;" horiz-adv-x="0" 
d="M-90 758c-25 -52 -88 -87 -149 -87c-67 0 -118 40 -133 87l53 24c9 -32 42 -55 85 -55c50 0 81 27 95 55z" />
    <glyph glyph-name="caron" unicode="&#x2c7;" horiz-adv-x="500" 
d="M287 646h-56l-122 109l28 39l128 -80l144 80l22 -39z" />
    <glyph glyph-name="cedilla" unicode="&#xb8;" horiz-adv-x="500" 
d="M283 -81c1 -5 0 -11 0 -17c-5 -51 -44 -82 -114 -82c-44 0 -73 10 -94 25l21 33c11 -7 37 -18 58 -18c35 0 64 13 67 38v8c-2 18 -16 31 -42 31c-10 0 -22 -2 -36 -7l-38 20l33 71l49 -4l-22 -46c13 2 24 3 35 3c49 0 79 -20 83 -55z" />
    <glyph glyph-name="circumflex" unicode="&#x2c6;" horiz-adv-x="500" 
d="M397 646l-128 80l-144 -80l-22 39l144 109h56l122 -109z" />
    <glyph glyph-name="dotaccent" unicode="&#x2d9;" horiz-adv-x="500" 
d="M296 678h-71l10 102h71z" />
    <glyph glyph-name="grave" unicode="`" horiz-adv-x="400" 
d="M296 632l-178 141l46 53l175 -141z" />
    <glyph glyph-name="hungarumlaut" unicode="&#x2dd;" horiz-adv-x="500" 
d="M114 632l-21 35l137 134l49 -46zM264 637l-19 36l148 124l45 -51z" />
    <glyph glyph-name="macron" unicode="&#xaf;" horiz-adv-x="500" 
d="M413 688h-300l5 54h300z" />
    <glyph glyph-name="ogonek" unicode="&#x2db;" horiz-adv-x="500" 
d="M285 -147c-21 -12 -65 -22 -99 -22c-54 0 -94 19 -99 66c-1 7 -1 15 0 23c4 37 14 67 45 100h67c-31 -37 -44 -63 -46 -88c-1 -5 -1 -9 -1 -13c2 -18 16 -25 49 -25c26 0 61 11 91 29z" />
    <glyph glyph-name="ring" unicode="&#x2da;" horiz-adv-x="500" 
d="M372 749c0 -7 1 -14 0 -21c-6 -56 -56 -102 -112 -102c-49 0 -86 35 -92 81c0 7 -1 14 0 21c6 56 55 102 111 102c49 0 87 -35 93 -81zM330 739c-3 27 -26 48 -55 48c-33 0 -62 -27 -65 -60c0 -4 0 -8 1 -12c3 -27 24 -47 53 -47c33 0 63 26 66 59c1 4 0 8 0 12z" />
    <glyph glyph-name="tilde" unicode="&#x2dc;" horiz-adv-x="500" 
d="M438 704c-26 -25 -59 -49 -102 -49c-27 0 -50 15 -76 31c-18 11 -48 31 -70 31c-30 0 -56 -15 -101 -60l7 77c29 28 63 49 101 49c28 0 54 -17 77 -31c26 -15 49 -31 69 -31c31 0 57 15 102 60z" />
  </font>
</defs>
</svg>
